<svg width="665" height="492" viewBox="0 0 665 492" fill="none" xmlns="http://www.w3.org/2000/svg">
<path d="M487.852 432.806H86L287 84L487.852 432.806Z" stroke="#02053C" stroke-width="4"/>
<path d="M487.927 432.478H86.0744L287 84L487.927 432.478Z" stroke="white" stroke-width="2" stroke-dasharray="4 4"/>
<circle cx="86" cy="432" r="14" fill="#A6D9E7" stroke="#02053C" stroke-width="2"/>
<circle cx="186.277" cy="257.912" r="14" transform="rotate(-105 186.277 257.912)" fill="#C192BE" stroke="#02053C" stroke-width="2"/>
<circle cx="236.777" cy="170.443" r="14" transform="rotate(-105 236.777 170.443)" fill="white" stroke="#02053C" stroke-width="2"/>
<circle cx="136.277" cy="344.514" r="14" transform="rotate(-105 136.277 344.514)" fill="white" stroke="#02053C" stroke-width="2"/>
<circle cx="287" cy="432" r="14" fill="#C192BE" stroke="#02053C" stroke-width="2"/>
<circle cx="388" cy="432" r="14" fill="white" stroke="#02053C" stroke-width="2"/>
<circle cx="187" cy="432" r="14" fill="#C192BE" stroke="#02053C" stroke-width="2"/>
<circle cx="287.49" cy="83.4904" r="14" transform="rotate(60 287.49 83.4904)" fill="#A6D9E7" stroke="#02053C" stroke-width="2"/>
<circle cx="470" cy="15" r="14" fill="#A6D9E7" stroke="#02053C" stroke-width="2"/>
<circle cx="470" cy="55" r="14" fill="white" stroke="#02053C" stroke-width="2"/>
<circle cx="470" cy="95" r="14" fill="#C192BE" stroke="#02053C" stroke-width="2"/>
<circle cx="488.49" cy="431.632" r="14" transform="rotate(60 488.49 431.632)" fill="#A6D9E7" stroke="#02053C" stroke-width="2"/>
<circle cx="387.99" cy="257.562" r="14" transform="rotate(60 387.99 257.562)" fill="white" stroke="#02053C" stroke-width="2"/>
<circle cx="438.49" cy="345.03" r="14" transform="rotate(60 438.49 345.03)" fill="#C192BE" stroke="#02053C" stroke-width="2"/>
<circle cx="337.99" cy="170.959" r="14" transform="rotate(60 337.99 170.959)" fill="white" stroke="#02053C" stroke-width="2"/>
<path d="M247.188 489.144C246.844 489.144 246.504 489.1 246.168 489.012C245.84 488.924 245.532 488.8 245.244 488.64C244.964 488.472 244.724 488.28 244.524 488.064L245.568 487.008C245.76 487.216 245.988 487.38 246.252 487.5C246.516 487.612 246.804 487.668 247.116 487.668C247.332 487.668 247.496 487.636 247.608 487.572C247.728 487.508 247.788 487.42 247.788 487.308C247.788 487.164 247.716 487.056 247.572 486.984C247.436 486.904 247.26 486.836 247.044 486.78C246.828 486.716 246.6 486.648 246.36 486.576C246.12 486.504 245.892 486.404 245.676 486.276C245.46 486.148 245.284 485.972 245.148 485.748C245.012 485.516 244.944 485.224 244.944 484.872C244.944 484.496 245.04 484.172 245.232 483.9C245.424 483.62 245.696 483.4 246.048 483.24C246.4 483.08 246.812 483 247.284 483C247.78 483 248.236 483.088 248.652 483.264C249.076 483.432 249.42 483.684 249.684 484.02L248.64 485.076C248.456 484.86 248.248 484.708 248.016 484.62C247.792 484.532 247.572 484.488 247.356 484.488C247.148 484.488 246.992 484.52 246.888 484.584C246.784 484.64 246.732 484.724 246.732 484.836C246.732 484.956 246.8 485.052 246.936 485.124C247.072 485.196 247.248 485.26 247.464 485.316C247.68 485.372 247.908 485.44 248.148 485.52C248.388 485.6 248.616 485.708 248.832 485.844C249.048 485.98 249.224 486.164 249.36 486.396C249.496 486.62 249.564 486.916 249.564 487.284C249.564 487.852 249.348 488.304 248.916 488.64C248.492 488.976 247.916 489.144 247.188 489.144ZM250.56 489V483.168H252.396V489H250.56ZM251.484 482.364C251.196 482.364 250.956 482.268 250.764 482.076C250.58 481.876 250.488 481.636 250.488 481.356C250.488 481.068 250.58 480.828 250.764 480.636C250.956 480.444 251.196 480.348 251.484 480.348C251.772 480.348 252.008 480.444 252.192 480.636C252.376 480.828 252.468 481.068 252.468 481.356C252.468 481.636 252.376 481.876 252.192 482.076C252.008 482.268 251.772 482.364 251.484 482.364ZM256.173 489.12C255.621 489.12 255.129 488.988 254.697 488.724C254.273 488.46 253.937 488.1 253.689 487.644C253.449 487.188 253.329 486.668 253.329 486.084C253.329 485.5 253.449 484.98 253.689 484.524C253.937 484.068 254.273 483.708 254.697 483.444C255.129 483.18 255.621 483.048 256.173 483.048C256.573 483.048 256.933 483.124 257.253 483.276C257.581 483.428 257.849 483.64 258.057 483.912C258.273 484.176 258.393 484.48 258.417 484.824V487.284C258.393 487.628 258.277 487.94 258.069 488.22C257.861 488.492 257.593 488.712 257.265 488.88C256.937 489.04 256.573 489.12 256.173 489.12ZM256.497 487.464C256.761 487.464 256.989 487.408 257.181 487.296C257.373 487.176 257.525 487.012 257.637 486.804C257.749 486.596 257.805 486.356 257.805 486.084C257.805 485.812 257.749 485.576 257.637 485.376C257.533 485.168 257.381 485.004 257.181 484.884C256.989 484.764 256.765 484.704 256.509 484.704C256.253 484.704 256.025 484.764 255.825 484.884C255.633 485.004 255.477 485.168 255.357 485.376C255.245 485.584 255.189 485.82 255.189 486.084C255.189 486.348 255.245 486.584 255.357 486.792C255.469 487 255.625 487.164 255.825 487.284C256.025 487.404 256.249 487.464 256.497 487.464ZM259.533 489H257.733V487.428L258.009 486.012L257.697 484.596V480.288H259.533V489ZM263.706 489.132C263.074 489.132 262.51 489.004 262.014 488.748C261.526 488.484 261.142 488.12 260.862 487.656C260.582 487.192 260.442 486.668 260.442 486.084C260.442 485.5 260.578 484.98 260.85 484.524C261.13 484.06 261.506 483.696 261.978 483.432C262.45 483.168 262.982 483.036 263.574 483.036C264.15 483.036 264.658 483.16 265.098 483.408C265.538 483.656 265.882 484 266.13 484.44C266.386 484.88 266.514 485.384 266.514 485.952C266.514 486.056 266.506 486.168 266.49 486.288C266.482 486.4 266.462 486.532 266.43 486.684L261.402 486.696V485.436L265.65 485.424L264.858 485.952C264.85 485.616 264.798 485.34 264.702 485.124C264.606 484.9 264.462 484.732 264.27 484.62C264.086 484.5 263.858 484.44 263.586 484.44C263.298 484.44 263.046 484.508 262.83 484.644C262.622 484.772 262.458 484.956 262.338 485.196C262.226 485.436 262.17 485.728 262.17 486.072C262.17 486.416 262.23 486.712 262.35 486.96C262.478 487.2 262.654 487.388 262.878 487.524C263.11 487.652 263.382 487.716 263.694 487.716C263.982 487.716 264.242 487.668 264.474 487.572C264.706 487.468 264.91 487.316 265.086 487.116L266.094 488.124C265.806 488.46 265.458 488.712 265.05 488.88C264.642 489.048 264.194 489.132 263.706 489.132ZM273.045 489.132C272.365 489.132 271.749 488.948 271.197 488.58C270.645 488.212 270.209 487.7 269.889 487.044C269.577 486.38 269.421 485.616 269.421 484.752C269.421 483.88 269.577 483.12 269.889 482.472C270.201 481.816 270.629 481.308 271.173 480.948C271.717 480.58 272.333 480.396 273.021 480.396C273.717 480.396 274.337 480.58 274.881 480.948C275.425 481.308 275.853 481.816 276.165 482.472C276.485 483.128 276.645 483.892 276.645 484.764C276.645 485.636 276.485 486.4 276.165 487.056C275.853 487.712 275.425 488.224 274.881 488.592C274.345 488.952 273.733 489.132 273.045 489.132ZM273.033 487.464C273.385 487.464 273.689 487.364 273.945 487.164C274.201 486.956 274.397 486.652 274.533 486.252C274.677 485.844 274.749 485.348 274.749 484.764C274.749 484.172 274.677 483.676 274.533 483.276C274.397 482.876 274.201 482.576 273.945 482.376C273.689 482.168 273.381 482.064 273.021 482.064C272.677 482.064 272.373 482.164 272.109 482.364C271.853 482.564 271.657 482.864 271.521 483.264C271.385 483.664 271.317 484.16 271.317 484.752C271.317 485.344 271.385 485.84 271.521 486.24C271.657 486.64 271.853 486.944 272.109 487.152C272.373 487.36 272.681 487.464 273.033 487.464ZM278.769 489.132C278.457 489.132 278.197 489.024 277.989 488.808C277.781 488.592 277.677 488.332 277.677 488.028C277.677 487.708 277.781 487.444 277.989 487.236C278.197 487.02 278.457 486.912 278.769 486.912C279.089 486.912 279.349 487.02 279.549 487.236C279.757 487.444 279.861 487.708 279.861 488.028C279.861 488.332 279.757 488.592 279.549 488.808C279.349 489.024 279.089 489.132 278.769 489.132ZM278.769 485.58C278.457 485.58 278.197 485.472 277.989 485.256C277.781 485.04 277.677 484.78 277.677 484.476C277.677 484.156 277.781 483.892 277.989 483.684C278.197 483.468 278.457 483.36 278.769 483.36C279.089 483.36 279.349 483.468 279.549 483.684C279.757 483.892 279.861 484.156 279.861 484.476C279.861 484.78 279.757 485.04 279.549 485.256C279.349 485.472 279.089 485.58 278.769 485.58ZM302.187 489.12C301.627 489.12 301.119 488.988 300.663 488.724C300.215 488.46 299.859 488.104 299.595 487.656C299.339 487.2 299.211 486.696 299.211 486.144C299.211 485.584 299.339 485.08 299.595 484.632C299.859 484.184 300.215 483.832 300.663 483.576C301.119 483.312 301.627 483.18 302.187 483.18C302.627 483.18 303.035 483.264 303.411 483.432C303.787 483.592 304.111 483.828 304.383 484.14L303.663 484.86C303.487 484.652 303.271 484.496 303.015 484.392C302.767 484.28 302.491 484.224 302.187 484.224C301.827 484.224 301.507 484.308 301.227 484.476C300.947 484.636 300.727 484.86 300.567 485.148C300.407 485.436 300.327 485.768 300.327 486.144C300.327 486.52 300.407 486.852 300.567 487.14C300.727 487.428 300.947 487.656 301.227 487.824C301.507 487.992 301.827 488.076 302.187 488.076C302.491 488.076 302.767 488.024 303.015 487.92C303.271 487.808 303.491 487.648 303.675 487.44L304.383 488.16C304.119 488.464 303.795 488.7 303.411 488.868C303.035 489.036 302.627 489.12 302.187 489.12ZM307.031 491.072C306.652 491.072 306.304 490.966 305.987 490.755C305.675 490.539 305.425 490.237 305.238 489.848C305.051 489.459 304.957 489.001 304.957 488.473C304.957 487.945 305.048 487.489 305.231 487.105C305.418 486.716 305.668 486.416 305.98 486.205C306.292 485.994 306.637 485.888 307.016 485.888C307.4 485.888 307.748 485.994 308.06 486.205C308.372 486.416 308.62 486.716 308.802 487.105C308.989 487.489 309.083 487.947 309.083 488.48C309.083 489.008 308.989 489.466 308.802 489.855C308.62 490.244 308.372 490.544 308.06 490.755C307.753 490.966 307.41 491.072 307.031 491.072ZM307.016 490.294C307.266 490.294 307.482 490.227 307.664 490.093C307.847 489.958 307.988 489.757 308.089 489.488C308.195 489.219 308.248 488.881 308.248 488.473C308.248 488.07 308.195 487.734 308.089 487.465C307.988 487.196 307.844 486.997 307.657 486.867C307.475 486.733 307.261 486.666 307.016 486.666C306.772 486.666 306.556 486.733 306.368 486.867C306.186 486.997 306.044 487.196 305.944 487.465C305.843 487.729 305.792 488.065 305.792 488.473C305.792 488.881 305.843 489.219 305.944 489.488C306.044 489.757 306.186 489.958 306.368 490.093C306.556 490.227 306.772 490.294 307.016 490.294ZM312.8 484.092V483.12H317.888V484.092H312.8ZM312.8 486.852V485.88H317.888V486.852H312.8ZM321.488 488.316L324.56 485.076C324.872 484.756 325.116 484.48 325.292 484.248C325.468 484.008 325.592 483.788 325.664 483.588C325.744 483.388 325.784 483.18 325.784 482.964C325.784 482.54 325.648 482.208 325.376 481.968C325.104 481.728 324.752 481.608 324.32 481.608C323.896 481.608 323.524 481.712 323.204 481.92C322.884 482.12 322.6 482.432 322.352 482.856L321.56 482.196C321.888 481.652 322.284 481.244 322.748 480.972C323.212 480.692 323.748 480.552 324.356 480.552C324.868 480.552 325.312 480.652 325.688 480.852C326.072 481.052 326.368 481.332 326.576 481.692C326.784 482.052 326.888 482.472 326.888 482.952C326.888 483.296 326.844 483.604 326.756 483.876C326.676 484.148 326.528 484.428 326.312 484.716C326.104 484.996 325.812 485.332 325.436 485.724L322.952 488.28L321.488 488.316ZM321.488 489V488.316L322.448 487.992H327.08V489H321.488Z" fill="#02053C"/>
<path d="M440.804 262.144C440.46 262.144 440.12 262.1 439.784 262.012C439.456 261.924 439.148 261.8 438.86 261.64C438.58 261.472 438.34 261.28 438.14 261.064L439.184 260.008C439.376 260.216 439.604 260.38 439.868 260.5C440.132 260.612 440.42 260.668 440.732 260.668C440.948 260.668 441.112 260.636 441.224 260.572C441.344 260.508 441.404 260.42 441.404 260.308C441.404 260.164 441.332 260.056 441.188 259.984C441.052 259.904 440.876 259.836 440.66 259.78C440.444 259.716 440.216 259.648 439.976 259.576C439.736 259.504 439.508 259.404 439.292 259.276C439.076 259.148 438.9 258.972 438.764 258.748C438.628 258.516 438.56 258.224 438.56 257.872C438.56 257.496 438.656 257.172 438.848 256.9C439.04 256.62 439.312 256.4 439.664 256.24C440.016 256.08 440.428 256 440.9 256C441.396 256 441.852 256.088 442.268 256.264C442.692 256.432 443.036 256.684 443.3 257.02L442.256 258.076C442.072 257.86 441.864 257.708 441.632 257.62C441.408 257.532 441.188 257.488 440.972 257.488C440.764 257.488 440.608 257.52 440.504 257.584C440.4 257.64 440.348 257.724 440.348 257.836C440.348 257.956 440.416 258.052 440.552 258.124C440.688 258.196 440.864 258.26 441.08 258.316C441.296 258.372 441.524 258.44 441.764 258.52C442.004 258.6 442.232 258.708 442.448 258.844C442.664 258.98 442.84 259.164 442.976 259.396C443.112 259.62 443.18 259.916 443.18 260.284C443.18 260.852 442.964 261.304 442.532 261.64C442.108 261.976 441.532 262.144 440.804 262.144ZM444.176 262V256.168H446.012V262H444.176ZM445.1 255.364C444.812 255.364 444.572 255.268 444.38 255.076C444.196 254.876 444.104 254.636 444.104 254.356C444.104 254.068 444.196 253.828 444.38 253.636C444.572 253.444 444.812 253.348 445.1 253.348C445.388 253.348 445.624 253.444 445.808 253.636C445.992 253.828 446.084 254.068 446.084 254.356C446.084 254.636 445.992 254.876 445.808 255.076C445.624 255.268 445.388 255.364 445.1 255.364ZM449.789 262.12C449.237 262.12 448.745 261.988 448.313 261.724C447.889 261.46 447.553 261.1 447.305 260.644C447.065 260.188 446.945 259.668 446.945 259.084C446.945 258.5 447.065 257.98 447.305 257.524C447.553 257.068 447.889 256.708 448.313 256.444C448.745 256.18 449.237 256.048 449.789 256.048C450.189 256.048 450.549 256.124 450.869 256.276C451.197 256.428 451.465 256.64 451.673 256.912C451.889 257.176 452.009 257.48 452.033 257.824V260.284C452.009 260.628 451.893 260.94 451.685 261.22C451.477 261.492 451.209 261.712 450.881 261.88C450.553 262.04 450.189 262.12 449.789 262.12ZM450.113 260.464C450.377 260.464 450.605 260.408 450.797 260.296C450.989 260.176 451.141 260.012 451.253 259.804C451.365 259.596 451.421 259.356 451.421 259.084C451.421 258.812 451.365 258.576 451.253 258.376C451.149 258.168 450.997 258.004 450.797 257.884C450.605 257.764 450.381 257.704 450.125 257.704C449.869 257.704 449.641 257.764 449.441 257.884C449.249 258.004 449.093 258.168 448.973 258.376C448.861 258.584 448.805 258.82 448.805 259.084C448.805 259.348 448.861 259.584 448.973 259.792C449.085 260 449.241 260.164 449.441 260.284C449.641 260.404 449.865 260.464 450.113 260.464ZM453.149 262H451.349V260.428L451.625 259.012L451.313 257.596V253.288H453.149V262ZM457.322 262.132C456.69 262.132 456.126 262.004 455.63 261.748C455.142 261.484 454.758 261.12 454.478 260.656C454.198 260.192 454.058 259.668 454.058 259.084C454.058 258.5 454.194 257.98 454.466 257.524C454.746 257.06 455.122 256.696 455.594 256.432C456.066 256.168 456.598 256.036 457.19 256.036C457.766 256.036 458.274 256.16 458.714 256.408C459.154 256.656 459.498 257 459.746 257.44C460.002 257.88 460.13 258.384 460.13 258.952C460.13 259.056 460.122 259.168 460.106 259.288C460.098 259.4 460.078 259.532 460.046 259.684L455.018 259.696V258.436L459.266 258.424L458.474 258.952C458.466 258.616 458.414 258.34 458.318 258.124C458.222 257.9 458.078 257.732 457.886 257.62C457.702 257.5 457.474 257.44 457.202 257.44C456.914 257.44 456.662 257.508 456.446 257.644C456.238 257.772 456.074 257.956 455.954 258.196C455.842 258.436 455.786 258.728 455.786 259.072C455.786 259.416 455.846 259.712 455.966 259.96C456.094 260.2 456.27 260.388 456.494 260.524C456.726 260.652 456.998 260.716 457.31 260.716C457.598 260.716 457.858 260.668 458.09 260.572C458.322 260.468 458.526 260.316 458.702 260.116L459.71 261.124C459.422 261.46 459.074 261.712 458.666 261.88C458.258 262.048 457.81 262.132 457.322 262.132ZM464.525 262V253.528H466.397V262H464.525ZM462.893 255.124V253.528H466.277V255.124H462.893ZM468.928 262.132C468.616 262.132 468.356 262.024 468.148 261.808C467.94 261.592 467.836 261.332 467.836 261.028C467.836 260.708 467.94 260.444 468.148 260.236C468.356 260.02 468.616 259.912 468.928 259.912C469.248 259.912 469.508 260.02 469.708 260.236C469.916 260.444 470.02 260.708 470.02 261.028C470.02 261.332 469.916 261.592 469.708 261.808C469.508 262.024 469.248 262.132 468.928 262.132ZM468.928 258.58C468.616 258.58 468.356 258.472 468.148 258.256C467.94 258.04 467.836 257.78 467.836 257.476C467.836 257.156 467.94 256.892 468.148 256.684C468.356 256.468 468.616 256.36 468.928 256.36C469.248 256.36 469.508 256.468 469.708 256.684C469.916 256.892 470.02 257.156 470.02 257.476C470.02 257.78 469.916 258.04 469.708 258.256C469.508 258.472 469.248 258.58 468.928 258.58ZM492.346 262.12C491.786 262.12 491.278 261.988 490.822 261.724C490.374 261.46 490.018 261.104 489.754 260.656C489.498 260.2 489.37 259.696 489.37 259.144C489.37 258.584 489.498 258.08 489.754 257.632C490.018 257.184 490.374 256.832 490.822 256.576C491.278 256.312 491.786 256.18 492.346 256.18C492.786 256.18 493.194 256.264 493.57 256.432C493.946 256.592 494.27 256.828 494.542 257.14L493.822 257.86C493.646 257.652 493.43 257.496 493.174 257.392C492.926 257.28 492.65 257.224 492.346 257.224C491.986 257.224 491.666 257.308 491.386 257.476C491.106 257.636 490.886 257.86 490.726 258.148C490.566 258.436 490.486 258.768 490.486 259.144C490.486 259.52 490.566 259.852 490.726 260.14C490.886 260.428 491.106 260.656 491.386 260.824C491.666 260.992 491.986 261.076 492.346 261.076C492.65 261.076 492.926 261.024 493.174 260.92C493.43 260.808 493.65 260.648 493.834 260.44L494.542 261.16C494.278 261.464 493.954 261.7 493.57 261.868C493.194 262.036 492.786 262.12 492.346 262.12ZM496.016 264V258.96H496.83V264H496.016ZM495.008 259.702V258.96H496.758V259.702H495.008ZM500.801 257.092V256.12H505.889V257.092H500.801ZM500.801 259.852V258.88H505.889V259.852H500.801ZM513.053 262.12C512.429 262.12 511.857 261.944 511.337 261.592C510.825 261.24 510.417 260.744 510.113 260.104C509.809 259.456 509.657 258.696 509.657 257.824C509.657 256.952 509.805 256.196 510.101 255.556C510.405 254.916 510.813 254.424 511.325 254.08C511.837 253.728 512.401 253.552 513.017 253.552C513.649 253.552 514.221 253.728 514.733 254.08C515.245 254.424 515.649 254.916 515.945 255.556C516.249 256.196 516.401 256.956 516.401 257.836C516.401 258.708 516.249 259.468 515.945 260.116C515.649 260.756 515.245 261.252 514.733 261.604C514.229 261.948 513.669 262.12 513.053 262.12ZM513.029 261.052C513.469 261.052 513.853 260.932 514.181 260.692C514.517 260.444 514.781 260.08 514.973 259.6C515.165 259.12 515.261 258.528 515.261 257.824C515.261 257.12 515.165 256.532 514.973 256.06C514.781 255.58 514.517 255.22 514.181 254.98C513.845 254.732 513.457 254.608 513.017 254.608C512.585 254.608 512.201 254.732 511.865 254.98C511.529 255.22 511.265 255.58 511.073 256.06C510.889 256.532 510.797 257.12 510.797 257.824C510.797 258.528 510.889 259.12 511.073 259.6C511.265 260.08 511.529 260.444 511.865 260.692C512.201 260.932 512.589 261.052 513.029 261.052Z" fill="#02053C"/>
<path d="M61.8745 262.144C61.5305 262.144 61.1905 262.1 60.8545 262.012C60.5265 261.924 60.2185 261.8 59.9305 261.64C59.6505 261.472 59.4105 261.28 59.2105 261.064L60.2545 260.008C60.4465 260.216 60.6745 260.38 60.9385 260.5C61.2025 260.612 61.4905 260.668 61.8025 260.668C62.0185 260.668 62.1825 260.636 62.2945 260.572C62.4145 260.508 62.4745 260.42 62.4745 260.308C62.4745 260.164 62.4025 260.056 62.2585 259.984C62.1225 259.904 61.9465 259.836 61.7305 259.78C61.5145 259.716 61.2865 259.648 61.0465 259.576C60.8065 259.504 60.5785 259.404 60.3625 259.276C60.1465 259.148 59.9705 258.972 59.8345 258.748C59.6985 258.516 59.6305 258.224 59.6305 257.872C59.6305 257.496 59.7265 257.172 59.9185 256.9C60.1105 256.62 60.3825 256.4 60.7345 256.24C61.0865 256.08 61.4985 256 61.9705 256C62.4665 256 62.9225 256.088 63.3385 256.264C63.7625 256.432 64.1065 256.684 64.3705 257.02L63.3265 258.076C63.1425 257.86 62.9345 257.708 62.7025 257.62C62.4785 257.532 62.2585 257.488 62.0425 257.488C61.8345 257.488 61.6785 257.52 61.5745 257.584C61.4705 257.64 61.4185 257.724 61.4185 257.836C61.4185 257.956 61.4865 258.052 61.6225 258.124C61.7585 258.196 61.9345 258.26 62.1505 258.316C62.3665 258.372 62.5945 258.44 62.8345 258.52C63.0745 258.6 63.3025 258.708 63.5185 258.844C63.7345 258.98 63.9105 259.164 64.0465 259.396C64.1825 259.62 64.2505 259.916 64.2505 260.284C64.2505 260.852 64.0345 261.304 63.6025 261.64C63.1785 261.976 62.6025 262.144 61.8745 262.144ZM65.2466 262V256.168H67.0826V262H65.2466ZM66.1706 255.364C65.8826 255.364 65.6426 255.268 65.4506 255.076C65.2666 254.876 65.1746 254.636 65.1746 254.356C65.1746 254.068 65.2666 253.828 65.4506 253.636C65.6426 253.444 65.8826 253.348 66.1706 253.348C66.4586 253.348 66.6946 253.444 66.8786 253.636C67.0626 253.828 67.1546 254.068 67.1546 254.356C67.1546 254.636 67.0626 254.876 66.8786 255.076C66.6946 255.268 66.4586 255.364 66.1706 255.364ZM70.8595 262.12C70.3075 262.12 69.8155 261.988 69.3835 261.724C68.9595 261.46 68.6235 261.1 68.3755 260.644C68.1355 260.188 68.0155 259.668 68.0155 259.084C68.0155 258.5 68.1355 257.98 68.3755 257.524C68.6235 257.068 68.9595 256.708 69.3835 256.444C69.8155 256.18 70.3075 256.048 70.8595 256.048C71.2595 256.048 71.6195 256.124 71.9395 256.276C72.2675 256.428 72.5355 256.64 72.7435 256.912C72.9595 257.176 73.0795 257.48 73.1035 257.824V260.284C73.0795 260.628 72.9635 260.94 72.7555 261.22C72.5475 261.492 72.2795 261.712 71.9515 261.88C71.6235 262.04 71.2595 262.12 70.8595 262.12ZM71.1835 260.464C71.4475 260.464 71.6755 260.408 71.8675 260.296C72.0595 260.176 72.2115 260.012 72.3235 259.804C72.4355 259.596 72.4915 259.356 72.4915 259.084C72.4915 258.812 72.4355 258.576 72.3235 258.376C72.2195 258.168 72.0675 258.004 71.8675 257.884C71.6755 257.764 71.4515 257.704 71.1955 257.704C70.9395 257.704 70.7115 257.764 70.5115 257.884C70.3195 258.004 70.1635 258.168 70.0435 258.376C69.9315 258.584 69.8755 258.82 69.8755 259.084C69.8755 259.348 69.9315 259.584 70.0435 259.792C70.1555 260 70.3115 260.164 70.5115 260.284C70.7115 260.404 70.9355 260.464 71.1835 260.464ZM74.2195 262H72.4195V260.428L72.6955 259.012L72.3835 257.596V253.288H74.2195V262ZM78.3923 262.132C77.7603 262.132 77.1963 262.004 76.7003 261.748C76.2123 261.484 75.8283 261.12 75.5483 260.656C75.2683 260.192 75.1283 259.668 75.1283 259.084C75.1283 258.5 75.2643 257.98 75.5363 257.524C75.8163 257.06 76.1923 256.696 76.6643 256.432C77.1363 256.168 77.6683 256.036 78.2603 256.036C78.8363 256.036 79.3443 256.16 79.7843 256.408C80.2243 256.656 80.5683 257 80.8163 257.44C81.0723 257.88 81.2003 258.384 81.2003 258.952C81.2003 259.056 81.1923 259.168 81.1763 259.288C81.1683 259.4 81.1483 259.532 81.1163 259.684L76.0883 259.696V258.436L80.3363 258.424L79.5443 258.952C79.5363 258.616 79.4843 258.34 79.3883 258.124C79.2923 257.9 79.1483 257.732 78.9563 257.62C78.7723 257.5 78.5443 257.44 78.2723 257.44C77.9843 257.44 77.7323 257.508 77.5163 257.644C77.3083 257.772 77.1443 257.956 77.0243 258.196C76.9123 258.436 76.8563 258.728 76.8563 259.072C76.8563 259.416 76.9163 259.712 77.0363 259.96C77.1643 260.2 77.3403 260.388 77.5643 260.524C77.7963 260.652 78.0683 260.716 78.3803 260.716C78.6683 260.716 78.9283 260.668 79.1603 260.572C79.3923 260.468 79.5963 260.316 79.7723 260.116L80.7803 261.124C80.4923 261.46 80.1443 261.712 79.7363 261.88C79.3283 262.048 78.8803 262.132 78.3923 262.132ZM84.0116 260.944L87.2636 257.584C87.4636 257.384 87.6236 257.2 87.7436 257.032C87.8636 256.864 87.9516 256.708 88.0076 256.564C88.0636 256.412 88.0916 256.26 88.0916 256.108C88.0916 255.78 87.9836 255.524 87.7676 255.34C87.5596 255.148 87.2836 255.052 86.9396 255.052C86.6036 255.052 86.2996 255.144 86.0276 255.328C85.7636 255.504 85.5076 255.796 85.2596 256.204L83.9996 255.112C84.3356 254.544 84.7636 254.116 85.2836 253.828C85.8036 253.54 86.3996 253.396 87.0716 253.396C87.6556 253.396 88.1596 253.504 88.5836 253.72C89.0156 253.936 89.3476 254.244 89.5796 254.644C89.8196 255.044 89.9396 255.512 89.9396 256.048C89.9396 256.384 89.8956 256.696 89.8076 256.984C89.7196 257.264 89.5756 257.544 89.3756 257.824C89.1836 258.096 88.9236 258.396 88.5956 258.724L86.3396 260.968L84.0116 260.944ZM84.0116 262V260.944L85.6076 260.392H90.1076V262H84.0116ZM92.2371 262.132C91.9251 262.132 91.6651 262.024 91.4571 261.808C91.2491 261.592 91.1451 261.332 91.1451 261.028C91.1451 260.708 91.2491 260.444 91.4571 260.236C91.6651 260.02 91.9251 259.912 92.2371 259.912C92.5571 259.912 92.8171 260.02 93.0171 260.236C93.2251 260.444 93.3291 260.708 93.3291 261.028C93.3291 261.332 93.2251 261.592 93.0171 261.808C92.8171 262.024 92.5571 262.132 92.2371 262.132ZM92.2371 258.58C91.9251 258.58 91.6651 258.472 91.4571 258.256C91.2491 258.04 91.1451 257.78 91.1451 257.476C91.1451 257.156 91.2491 256.892 91.4571 256.684C91.6651 256.468 91.9251 256.36 92.2371 256.36C92.5571 256.36 92.8171 256.468 93.0171 256.684C93.2251 256.892 93.3291 257.156 93.3291 257.476C93.3291 257.78 93.2251 258.04 93.0171 258.256C92.8171 258.472 92.5571 258.58 92.2371 258.58ZM115.655 262.12C115.095 262.12 114.587 261.988 114.131 261.724C113.683 261.46 113.327 261.104 113.063 260.656C112.807 260.2 112.679 259.696 112.679 259.144C112.679 258.584 112.807 258.08 113.063 257.632C113.327 257.184 113.683 256.832 114.131 256.576C114.587 256.312 115.095 256.18 115.655 256.18C116.095 256.18 116.503 256.264 116.879 256.432C117.255 256.592 117.579 256.828 117.851 257.14L117.131 257.86C116.955 257.652 116.739 257.496 116.483 257.392C116.235 257.28 115.959 257.224 115.655 257.224C115.295 257.224 114.975 257.308 114.695 257.476C114.415 257.636 114.195 257.86 114.035 258.148C113.875 258.436 113.795 258.768 113.795 259.144C113.795 259.52 113.875 259.852 114.035 260.14C114.195 260.428 114.415 260.656 114.695 260.824C114.975 260.992 115.295 261.076 115.655 261.076C115.959 261.076 116.235 261.024 116.483 260.92C116.739 260.808 116.959 260.648 117.143 260.44L117.851 261.16C117.587 261.464 117.263 261.7 116.879 261.868C116.503 262.036 116.095 262.12 115.655 262.12ZM118.331 263.51L120.189 261.538C120.343 261.374 120.467 261.228 120.563 261.098C120.659 260.969 120.729 260.846 120.772 260.731C120.815 260.616 120.837 260.498 120.837 260.378C120.837 260.153 120.763 259.978 120.614 259.853C120.47 259.723 120.285 259.658 120.059 259.658C119.819 259.658 119.608 259.718 119.426 259.838C119.243 259.958 119.08 260.146 118.936 260.4L118.36 259.925C118.557 259.584 118.799 259.327 119.087 259.154C119.375 258.977 119.709 258.888 120.088 258.888C120.4 258.888 120.674 258.95 120.909 259.075C121.144 259.2 121.327 259.375 121.456 259.601C121.586 259.822 121.651 260.078 121.651 260.371C121.651 260.582 121.624 260.772 121.571 260.94C121.523 261.103 121.439 261.269 121.319 261.437C121.199 261.6 121.034 261.792 120.823 262.013L119.397 263.489L118.331 263.51ZM118.331 264V263.51L119.044 263.258H121.751V264H118.331ZM125.445 257.092V256.12H130.533V257.092H125.445ZM125.445 259.852V258.88H130.533V259.852H125.445ZM135.813 262V253.672H136.929V262H135.813ZM134.109 254.68V253.672H136.809V254.68H134.109Z" fill="#02053C"/>
<path d="M2.56213 436L0.090125 430.168H2.07013L3.75013 435.028H2.88613L4.56613 430.168H6.51013L4.03813 436H2.56213ZM9.88737 436.132C9.25538 436.132 8.69138 436.004 8.19538 435.748C7.70738 435.484 7.32338 435.12 7.04338 434.656C6.76338 434.192 6.62338 433.668 6.62338 433.084C6.62338 432.5 6.75938 431.98 7.03138 431.524C7.31138 431.06 7.68738 430.696 8.15938 430.432C8.63138 430.168 9.16338 430.036 9.75538 430.036C10.3314 430.036 10.8394 430.16 11.2794 430.408C11.7194 430.656 12.0634 431 12.3114 431.44C12.5674 431.88 12.6954 432.384 12.6954 432.952C12.6954 433.056 12.6874 433.168 12.6714 433.288C12.6634 433.4 12.6434 433.532 12.6114 433.684L7.58338 433.696V432.436L11.8314 432.424L11.0394 432.952C11.0314 432.616 10.9794 432.34 10.8834 432.124C10.7874 431.9 10.6434 431.732 10.4514 431.62C10.2674 431.5 10.0394 431.44 9.76738 431.44C9.47938 431.44 9.22738 431.508 9.01138 431.644C8.80338 431.772 8.63938 431.956 8.51938 432.196C8.40738 432.436 8.35138 432.728 8.35138 433.072C8.35138 433.416 8.41138 433.712 8.53138 433.96C8.65938 434.2 8.83538 434.388 9.05938 434.524C9.29138 434.652 9.56338 434.716 9.87538 434.716C10.1634 434.716 10.4234 434.668 10.6554 434.572C10.8874 434.468 11.0914 434.316 11.2674 434.116L12.2754 435.124C11.9874 435.46 11.6394 435.712 11.2314 435.88C10.8234 436.048 10.3754 436.132 9.88737 436.132ZM13.5816 436V430.168H15.4176V436H13.5816ZM15.4176 432.796L14.6496 432.196C14.8016 431.516 15.0576 430.988 15.4176 430.612C15.7776 430.236 16.2776 430.048 16.9176 430.048C17.1976 430.048 17.4416 430.092 17.6496 430.18C17.8656 430.26 18.0536 430.388 18.2136 430.564L17.1216 431.944C17.0416 431.856 16.9416 431.788 16.8216 431.74C16.7016 431.692 16.5656 431.668 16.4136 431.668C16.1096 431.668 15.8656 431.764 15.6816 431.956C15.5056 432.14 15.4176 432.42 15.4176 432.796ZM19.5893 436V427.756H21.4253V436H19.5893ZM18.2693 431.728V430.168H22.7453V431.728H18.2693ZM26.3171 436.132C25.6851 436.132 25.1211 436.004 24.6251 435.748C24.1371 435.484 23.7531 435.12 23.4731 434.656C23.1931 434.192 23.0531 433.668 23.0531 433.084C23.0531 432.5 23.1891 431.98 23.4611 431.524C23.7411 431.06 24.1171 430.696 24.5891 430.432C25.0611 430.168 25.5931 430.036 26.1851 430.036C26.7611 430.036 27.2691 430.16 27.7091 430.408C28.1491 430.656 28.4931 431 28.7411 431.44C28.9971 431.88 29.1251 432.384 29.1251 432.952C29.1251 433.056 29.1171 433.168 29.1011 433.288C29.0931 433.4 29.0731 433.532 29.0411 433.684L24.0131 433.696V432.436L28.2611 432.424L27.4691 432.952C27.4611 432.616 27.4091 432.34 27.3131 432.124C27.2171 431.9 27.0731 431.732 26.8811 431.62C26.6971 431.5 26.4691 431.44 26.1971 431.44C25.9091 431.44 25.6571 431.508 25.4411 431.644C25.2331 431.772 25.0691 431.956 24.9491 432.196C24.8371 432.436 24.7811 432.728 24.7811 433.072C24.7811 433.416 24.8411 433.712 24.9611 433.96C25.0891 434.2 25.2651 434.388 25.4891 434.524C25.7211 434.652 25.9931 434.716 26.3051 434.716C26.5931 434.716 26.8531 434.668 27.0851 434.572C27.3171 434.468 27.5211 434.316 27.6971 434.116L28.7051 435.124C28.4171 435.46 28.0691 435.712 27.6611 435.88C27.2531 436.048 26.8051 436.132 26.3171 436.132ZM33.4709 436L32.0669 433.732L31.6709 433.48L29.3789 430.168H31.5269L32.8349 432.292L33.2189 432.532L35.5949 436H33.4709ZM29.2709 436L31.6589 432.604L32.7029 433.78L31.2749 436H29.2709ZM33.2069 433.468L32.1629 432.292L33.4829 430.168H35.4749L33.2069 433.468ZM41.9377 436.132C41.2577 436.132 40.6417 435.948 40.0897 435.58C39.5377 435.212 39.1017 434.7 38.7817 434.044C38.4697 433.38 38.3137 432.616 38.3137 431.752C38.3137 430.88 38.4697 430.12 38.7817 429.472C39.0937 428.816 39.5217 428.308 40.0657 427.948C40.6097 427.58 41.2257 427.396 41.9137 427.396C42.6097 427.396 43.2297 427.58 43.7737 427.948C44.3177 428.308 44.7457 428.816 45.0577 429.472C45.3777 430.128 45.5377 430.892 45.5377 431.764C45.5377 432.636 45.3777 433.4 45.0577 434.056C44.7457 434.712 44.3177 435.224 43.7737 435.592C43.2377 435.952 42.6257 436.132 41.9377 436.132ZM41.9257 434.464C42.2777 434.464 42.5817 434.364 42.8377 434.164C43.0937 433.956 43.2897 433.652 43.4257 433.252C43.5697 432.844 43.6417 432.348 43.6417 431.764C43.6417 431.172 43.5697 430.676 43.4257 430.276C43.2897 429.876 43.0937 429.576 42.8377 429.376C42.5817 429.168 42.2737 429.064 41.9137 429.064C41.5697 429.064 41.2657 429.164 41.0017 429.364C40.7457 429.564 40.5497 429.864 40.4137 430.264C40.2777 430.664 40.2097 431.16 40.2097 431.752C40.2097 432.344 40.2777 432.84 40.4137 433.24C40.5497 433.64 40.7457 433.944 41.0017 434.152C41.2657 434.36 41.5737 434.464 41.9257 434.464Z" fill="#02053C"/>
<path d="M538.791 436L536.319 430.168H538.299L539.979 435.028H539.115L540.795 430.168H542.739L540.267 436H538.791ZM546.116 436.132C545.484 436.132 544.92 436.004 544.424 435.748C543.936 435.484 543.552 435.12 543.272 434.656C542.992 434.192 542.852 433.668 542.852 433.084C542.852 432.5 542.988 431.98 543.26 431.524C543.54 431.06 543.916 430.696 544.388 430.432C544.86 430.168 545.392 430.036 545.984 430.036C546.56 430.036 547.068 430.16 547.508 430.408C547.948 430.656 548.292 431 548.54 431.44C548.796 431.88 548.924 432.384 548.924 432.952C548.924 433.056 548.916 433.168 548.9 433.288C548.892 433.4 548.872 433.532 548.84 433.684L543.812 433.696V432.436L548.06 432.424L547.268 432.952C547.26 432.616 547.208 432.34 547.112 432.124C547.016 431.9 546.872 431.732 546.68 431.62C546.496 431.5 546.268 431.44 545.996 431.44C545.708 431.44 545.456 431.508 545.24 431.644C545.032 431.772 544.868 431.956 544.748 432.196C544.636 432.436 544.58 432.728 544.58 433.072C544.58 433.416 544.64 433.712 544.76 433.96C544.888 434.2 545.064 434.388 545.288 434.524C545.52 434.652 545.792 434.716 546.104 434.716C546.392 434.716 546.652 434.668 546.884 434.572C547.116 434.468 547.32 434.316 547.496 434.116L548.504 435.124C548.216 435.46 547.868 435.712 547.46 435.88C547.052 436.048 546.604 436.132 546.116 436.132ZM549.81 436V430.168H551.646V436H549.81ZM551.646 432.796L550.878 432.196C551.03 431.516 551.286 430.988 551.646 430.612C552.006 430.236 552.506 430.048 553.146 430.048C553.426 430.048 553.67 430.092 553.878 430.18C554.094 430.26 554.282 430.388 554.442 430.564L553.35 431.944C553.27 431.856 553.17 431.788 553.05 431.74C552.93 431.692 552.794 431.668 552.642 431.668C552.338 431.668 552.094 431.764 551.91 431.956C551.734 432.14 551.646 432.42 551.646 432.796ZM555.818 436V427.756H557.654V436H555.818ZM554.498 431.728V430.168H558.974V431.728H554.498ZM562.546 436.132C561.914 436.132 561.35 436.004 560.854 435.748C560.366 435.484 559.982 435.12 559.702 434.656C559.422 434.192 559.282 433.668 559.282 433.084C559.282 432.5 559.418 431.98 559.69 431.524C559.97 431.06 560.346 430.696 560.818 430.432C561.29 430.168 561.822 430.036 562.414 430.036C562.99 430.036 563.498 430.16 563.938 430.408C564.378 430.656 564.722 431 564.97 431.44C565.226 431.88 565.354 432.384 565.354 432.952C565.354 433.056 565.346 433.168 565.33 433.288C565.322 433.4 565.302 433.532 565.27 433.684L560.242 433.696V432.436L564.49 432.424L563.698 432.952C563.69 432.616 563.638 432.34 563.542 432.124C563.446 431.9 563.302 431.732 563.11 431.62C562.926 431.5 562.698 431.44 562.426 431.44C562.138 431.44 561.886 431.508 561.67 431.644C561.462 431.772 561.298 431.956 561.178 432.196C561.066 432.436 561.01 432.728 561.01 433.072C561.01 433.416 561.07 433.712 561.19 433.96C561.318 434.2 561.494 434.388 561.718 434.524C561.95 434.652 562.222 434.716 562.534 434.716C562.822 434.716 563.082 434.668 563.314 434.572C563.546 434.468 563.75 434.316 563.926 434.116L564.934 435.124C564.646 435.46 564.298 435.712 563.89 435.88C563.482 436.048 563.034 436.132 562.546 436.132ZM569.699 436L568.295 433.732L567.899 433.48L565.607 430.168H567.755L569.063 432.292L569.447 432.532L571.823 436H569.699ZM565.499 436L567.887 432.604L568.931 433.78L567.503 436H565.499ZM569.435 433.468L568.391 432.292L569.711 430.168H571.703L569.435 433.468ZM576.03 436V427.528H577.902V436H576.03ZM574.398 429.124V427.528H577.782V429.124H574.398Z" fill="#02053C"/>
<path d="M268.672 40L266.2 34.168H268.18L269.86 39.028H268.996L270.676 34.168H272.62L270.148 40H268.672ZM275.997 40.132C275.365 40.132 274.801 40.004 274.305 39.748C273.817 39.484 273.433 39.12 273.153 38.656C272.873 38.192 272.733 37.668 272.733 37.084C272.733 36.5 272.869 35.98 273.141 35.524C273.421 35.06 273.797 34.696 274.269 34.432C274.741 34.168 275.273 34.036 275.865 34.036C276.441 34.036 276.949 34.16 277.389 34.408C277.829 34.656 278.173 35 278.421 35.44C278.677 35.88 278.805 36.384 278.805 36.952C278.805 37.056 278.797 37.168 278.781 37.288C278.773 37.4 278.753 37.532 278.721 37.684L273.693 37.696V36.436L277.941 36.424L277.149 36.952C277.141 36.616 277.089 36.34 276.993 36.124C276.897 35.9 276.753 35.732 276.561 35.62C276.377 35.5 276.149 35.44 275.877 35.44C275.589 35.44 275.337 35.508 275.121 35.644C274.913 35.772 274.749 35.956 274.629 36.196C274.517 36.436 274.461 36.728 274.461 37.072C274.461 37.416 274.521 37.712 274.641 37.96C274.769 38.2 274.945 38.388 275.169 38.524C275.401 38.652 275.673 38.716 275.985 38.716C276.273 38.716 276.533 38.668 276.765 38.572C276.997 38.468 277.201 38.316 277.377 38.116L278.385 39.124C278.097 39.46 277.749 39.712 277.341 39.88C276.933 40.048 276.485 40.132 275.997 40.132ZM279.691 40V34.168H281.527V40H279.691ZM281.527 36.796L280.759 36.196C280.911 35.516 281.167 34.988 281.527 34.612C281.887 34.236 282.387 34.048 283.027 34.048C283.307 34.048 283.551 34.092 283.759 34.18C283.975 34.26 284.163 34.388 284.323 34.564L283.231 35.944C283.151 35.856 283.051 35.788 282.931 35.74C282.811 35.692 282.675 35.668 282.523 35.668C282.219 35.668 281.975 35.764 281.791 35.956C281.615 36.14 281.527 36.42 281.527 36.796ZM285.699 40V31.756H287.535V40H285.699ZM284.379 35.728V34.168H288.855V35.728H284.379ZM292.426 40.132C291.794 40.132 291.23 40.004 290.734 39.748C290.246 39.484 289.862 39.12 289.582 38.656C289.302 38.192 289.162 37.668 289.162 37.084C289.162 36.5 289.298 35.98 289.57 35.524C289.85 35.06 290.226 34.696 290.698 34.432C291.17 34.168 291.702 34.036 292.294 34.036C292.87 34.036 293.378 34.16 293.818 34.408C294.258 34.656 294.602 35 294.85 35.44C295.106 35.88 295.234 36.384 295.234 36.952C295.234 37.056 295.226 37.168 295.21 37.288C295.202 37.4 295.182 37.532 295.15 37.684L290.122 37.696V36.436L294.37 36.424L293.578 36.952C293.57 36.616 293.518 36.34 293.422 36.124C293.326 35.9 293.182 35.732 292.99 35.62C292.806 35.5 292.578 35.44 292.306 35.44C292.018 35.44 291.766 35.508 291.55 35.644C291.342 35.772 291.178 35.956 291.058 36.196C290.946 36.436 290.89 36.728 290.89 37.072C290.89 37.416 290.95 37.712 291.07 37.96C291.198 38.2 291.374 38.388 291.598 38.524C291.83 38.652 292.102 38.716 292.414 38.716C292.702 38.716 292.962 38.668 293.194 38.572C293.426 38.468 293.63 38.316 293.806 38.116L294.814 39.124C294.526 39.46 294.178 39.712 293.77 39.88C293.362 40.048 292.914 40.132 292.426 40.132ZM299.58 40L298.176 37.732L297.78 37.48L295.488 34.168H297.636L298.944 36.292L299.328 36.532L301.704 40H299.58ZM295.38 40L297.768 36.604L298.812 37.78L297.384 40H295.38ZM299.316 37.468L298.272 36.292L299.592 34.168H301.584L299.316 37.468ZM304.327 38.944L307.579 35.584C307.779 35.384 307.939 35.2 308.059 35.032C308.179 34.864 308.267 34.708 308.323 34.564C308.379 34.412 308.407 34.26 308.407 34.108C308.407 33.78 308.299 33.524 308.083 33.34C307.875 33.148 307.599 33.052 307.255 33.052C306.919 33.052 306.615 33.144 306.343 33.328C306.079 33.504 305.823 33.796 305.575 34.204L304.315 33.112C304.651 32.544 305.079 32.116 305.599 31.828C306.119 31.54 306.715 31.396 307.387 31.396C307.971 31.396 308.475 31.504 308.899 31.72C309.331 31.936 309.663 32.244 309.895 32.644C310.135 33.044 310.255 33.512 310.255 34.048C310.255 34.384 310.211 34.696 310.123 34.984C310.035 35.264 309.891 35.544 309.691 35.824C309.499 36.096 309.239 36.396 308.911 36.724L306.655 38.968L304.327 38.944ZM304.327 40V38.944L305.923 38.392H310.423V40H304.327Z" fill="#02053C"/>
<path d="M507.484 19L505.012 13.168H506.992L508.672 18.028H507.808L509.488 13.168H511.432L508.96 19H507.484ZM514.809 19.132C514.177 19.132 513.613 19.004 513.117 18.748C512.629 18.484 512.245 18.12 511.965 17.656C511.685 17.192 511.545 16.668 511.545 16.084C511.545 15.5 511.681 14.98 511.953 14.524C512.233 14.06 512.609 13.696 513.081 13.432C513.553 13.168 514.085 13.036 514.677 13.036C515.253 13.036 515.761 13.16 516.201 13.408C516.641 13.656 516.985 14 517.233 14.44C517.489 14.88 517.617 15.384 517.617 15.952C517.617 16.056 517.609 16.168 517.593 16.288C517.585 16.4 517.565 16.532 517.533 16.684L512.505 16.696V15.436L516.753 15.424L515.961 15.952C515.953 15.616 515.901 15.34 515.805 15.124C515.709 14.9 515.565 14.732 515.373 14.62C515.189 14.5 514.961 14.44 514.689 14.44C514.401 14.44 514.149 14.508 513.933 14.644C513.725 14.772 513.561 14.956 513.441 15.196C513.329 15.436 513.273 15.728 513.273 16.072C513.273 16.416 513.333 16.712 513.453 16.96C513.581 17.2 513.757 17.388 513.981 17.524C514.213 17.652 514.485 17.716 514.797 17.716C515.085 17.716 515.345 17.668 515.577 17.572C515.809 17.468 516.013 17.316 516.189 17.116L517.197 18.124C516.909 18.46 516.561 18.712 516.153 18.88C515.745 19.048 515.297 19.132 514.809 19.132ZM518.503 19V13.168H520.339V19H518.503ZM520.339 15.796L519.571 15.196C519.723 14.516 519.979 13.988 520.339 13.612C520.699 13.236 521.199 13.048 521.839 13.048C522.119 13.048 522.363 13.092 522.571 13.18C522.787 13.26 522.975 13.388 523.135 13.564L522.043 14.944C521.963 14.856 521.863 14.788 521.743 14.74C521.623 14.692 521.487 14.668 521.335 14.668C521.031 14.668 520.787 14.764 520.603 14.956C520.427 15.14 520.339 15.42 520.339 15.796ZM524.511 19V10.756H526.347V19H524.511ZM523.191 14.728V13.168H527.667V14.728H523.191ZM531.239 19.132C530.607 19.132 530.043 19.004 529.547 18.748C529.059 18.484 528.675 18.12 528.395 17.656C528.115 17.192 527.975 16.668 527.975 16.084C527.975 15.5 528.111 14.98 528.383 14.524C528.663 14.06 529.039 13.696 529.511 13.432C529.983 13.168 530.515 13.036 531.107 13.036C531.683 13.036 532.191 13.16 532.631 13.408C533.071 13.656 533.415 14 533.663 14.44C533.919 14.88 534.047 15.384 534.047 15.952C534.047 16.056 534.039 16.168 534.023 16.288C534.015 16.4 533.995 16.532 533.963 16.684L528.935 16.696V15.436L533.183 15.424L532.391 15.952C532.383 15.616 532.331 15.34 532.235 15.124C532.139 14.9 531.995 14.732 531.803 14.62C531.619 14.5 531.391 14.44 531.119 14.44C530.831 14.44 530.579 14.508 530.363 14.644C530.155 14.772 529.991 14.956 529.871 15.196C529.759 15.436 529.703 15.728 529.703 16.072C529.703 16.416 529.763 16.712 529.883 16.96C530.011 17.2 530.187 17.388 530.411 17.524C530.643 17.652 530.915 17.716 531.227 17.716C531.515 17.716 531.775 17.668 532.007 17.572C532.239 17.468 532.443 17.316 532.619 17.116L533.627 18.124C533.339 18.46 532.991 18.712 532.583 18.88C532.175 19.048 531.727 19.132 531.239 19.132ZM538.393 19L536.989 16.732L536.593 16.48L534.301 13.168H536.449L537.757 15.292L538.141 15.532L540.517 19H538.393ZM534.193 19L536.581 15.604L537.625 16.78L536.197 19H534.193ZM538.129 16.468L537.085 15.292L538.405 13.168H540.397L538.129 16.468ZM543.668 19V10.528H545.552V19H543.668ZM545.12 19V17.344H549.308V19H545.12ZM550.394 19V10.528H552.278V19H550.394ZM551.834 19V17.368H556.478V19H551.834ZM551.834 15.46V13.888H556.058V15.46H551.834ZM551.834 12.148V10.528H556.418V12.148H551.834ZM559.049 19V17.344H561.149C561.661 17.344 562.109 17.244 562.493 17.044C562.877 16.836 563.173 16.536 563.381 16.144C563.589 15.752 563.693 15.288 563.693 14.752C563.693 14.216 563.585 13.756 563.369 13.372C563.161 12.988 562.865 12.692 562.481 12.484C562.105 12.276 561.661 12.172 561.149 12.172H558.989V10.528H561.173C561.813 10.528 562.401 10.632 562.937 10.84C563.481 11.04 563.953 11.332 564.353 11.716C564.761 12.092 565.073 12.54 565.289 13.06C565.513 13.572 565.625 14.14 565.625 14.764C565.625 15.38 565.513 15.948 565.289 16.468C565.073 16.988 564.765 17.436 564.365 17.812C563.965 18.188 563.493 18.48 562.949 18.688C562.413 18.896 561.829 19 561.197 19H559.049ZM557.777 19V10.528H559.661V19H557.777ZM570.825 20.524C570.369 20.132 569.981 19.66 569.661 19.108C569.341 18.556 569.097 17.952 568.929 17.296C568.761 16.64 568.677 15.952 568.677 15.232C568.677 14.512 568.761 13.824 568.929 13.168C569.097 12.512 569.341 11.908 569.661 11.356C569.981 10.804 570.369 10.332 570.825 9.94L571.833 10.912C571.321 11.408 570.929 12.02 570.657 12.748C570.385 13.476 570.249 14.304 570.249 15.232C570.249 16.152 570.385 16.98 570.657 17.716C570.929 18.444 571.321 19.06 571.833 19.564L570.825 20.524ZM576.508 19V15.676C576.508 15.372 576.412 15.128 576.22 14.944C576.036 14.752 575.8 14.656 575.512 14.656C575.312 14.656 575.136 14.7 574.984 14.788C574.832 14.868 574.712 14.988 574.624 15.148C574.536 15.3 574.492 15.476 574.492 15.676L573.784 15.328C573.784 14.872 573.884 14.472 574.084 14.128C574.284 13.784 574.56 13.52 574.912 13.336C575.272 13.144 575.676 13.048 576.124 13.048C576.556 13.048 576.936 13.152 577.264 13.36C577.6 13.56 577.864 13.828 578.056 14.164C578.248 14.5 578.344 14.868 578.344 15.268V19H576.508ZM572.656 19V13.168H574.492V19H572.656ZM582.331 19.132C581.731 19.132 581.187 19 580.699 18.736C580.219 18.464 579.839 18.096 579.559 17.632C579.279 17.168 579.139 16.648 579.139 16.072C579.139 15.496 579.279 14.98 579.559 14.524C579.839 14.068 580.219 13.708 580.699 13.444C581.179 13.172 581.723 13.036 582.331 13.036C582.939 13.036 583.483 13.168 583.963 13.432C584.443 13.696 584.823 14.06 585.103 14.524C585.383 14.98 585.523 15.496 585.523 16.072C585.523 16.648 585.383 17.168 585.103 17.632C584.823 18.096 584.443 18.464 583.963 18.736C583.483 19 582.939 19.132 582.331 19.132ZM582.331 17.464C582.595 17.464 582.827 17.408 583.027 17.296C583.227 17.176 583.379 17.012 583.483 16.804C583.595 16.588 583.651 16.344 583.651 16.072C583.651 15.8 583.595 15.564 583.483 15.364C583.371 15.156 583.215 14.996 583.015 14.884C582.823 14.764 582.595 14.704 582.331 14.704C582.075 14.704 581.847 14.764 581.647 14.884C581.447 14.996 581.291 15.156 581.179 15.364C581.067 15.572 581.011 15.812 581.011 16.084C581.011 16.348 581.067 16.588 581.179 16.804C581.291 17.012 581.447 17.176 581.647 17.296C581.847 17.408 582.075 17.464 582.331 17.464ZM590.289 19V15.676C590.289 15.372 590.193 15.128 590.001 14.944C589.817 14.752 589.581 14.656 589.293 14.656C589.093 14.656 588.917 14.7 588.765 14.788C588.613 14.868 588.493 14.988 588.405 15.148C588.317 15.3 588.273 15.476 588.273 15.676L587.565 15.328C587.565 14.872 587.665 14.472 587.865 14.128C588.065 13.784 588.341 13.52 588.693 13.336C589.053 13.144 589.457 13.048 589.905 13.048C590.337 13.048 590.717 13.152 591.045 13.36C591.381 13.56 591.645 13.828 591.837 14.164C592.029 14.5 592.125 14.868 592.125 15.268V19H590.289ZM586.437 19V13.168H588.273V19H586.437ZM593.304 16.744V15.136H597.552V16.744H593.304ZM601.913 19.132C601.313 19.132 600.769 19 600.281 18.736C599.793 18.472 599.409 18.108 599.129 17.644C598.849 17.18 598.709 16.66 598.709 16.084C598.709 15.5 598.849 14.98 599.129 14.524C599.417 14.06 599.805 13.696 600.293 13.432C600.781 13.168 601.329 13.036 601.937 13.036C602.393 13.036 602.809 13.116 603.185 13.276C603.569 13.428 603.909 13.66 604.205 13.972L603.029 15.148C602.893 14.996 602.733 14.884 602.549 14.812C602.373 14.74 602.169 14.704 601.937 14.704C601.673 14.704 601.437 14.764 601.229 14.884C601.029 14.996 600.869 15.156 600.749 15.364C600.637 15.564 600.581 15.8 600.581 16.072C600.581 16.344 600.637 16.584 600.749 16.792C600.869 17 601.033 17.164 601.241 17.284C601.449 17.404 601.681 17.464 601.937 17.464C602.177 17.464 602.389 17.424 602.573 17.344C602.765 17.256 602.929 17.136 603.065 16.984L604.229 18.16C603.925 18.48 603.581 18.724 603.197 18.892C602.813 19.052 602.385 19.132 601.913 19.132ZM607.714 19.132C607.114 19.132 606.57 19 606.082 18.736C605.602 18.464 605.222 18.096 604.942 17.632C604.662 17.168 604.522 16.648 604.522 16.072C604.522 15.496 604.662 14.98 604.942 14.524C605.222 14.068 605.602 13.708 606.082 13.444C606.562 13.172 607.106 13.036 607.714 13.036C608.322 13.036 608.866 13.168 609.346 13.432C609.826 13.696 610.206 14.06 610.486 14.524C610.766 14.98 610.906 15.496 610.906 16.072C610.906 16.648 610.766 17.168 610.486 17.632C610.206 18.096 609.826 18.464 609.346 18.736C608.866 19 608.322 19.132 607.714 19.132ZM607.714 17.464C607.978 17.464 608.21 17.408 608.41 17.296C608.61 17.176 608.762 17.012 608.866 16.804C608.978 16.588 609.034 16.344 609.034 16.072C609.034 15.8 608.978 15.564 608.866 15.364C608.754 15.156 608.598 14.996 608.398 14.884C608.206 14.764 607.978 14.704 607.714 14.704C607.458 14.704 607.23 14.764 607.03 14.884C606.83 14.996 606.674 15.156 606.562 15.364C606.45 15.572 606.394 15.812 606.394 16.084C606.394 16.348 606.45 16.588 606.562 16.804C606.674 17.012 606.83 17.176 607.03 17.296C607.23 17.408 607.458 17.464 607.714 17.464ZM615.672 19V15.676C615.672 15.372 615.576 15.128 615.384 14.944C615.2 14.752 614.964 14.656 614.676 14.656C614.476 14.656 614.3 14.7 614.148 14.788C613.996 14.868 613.876 14.988 613.788 15.148C613.7 15.3 613.656 15.476 613.656 15.676L612.948 15.328C612.948 14.872 613.048 14.472 613.248 14.128C613.448 13.784 613.724 13.52 614.076 13.336C614.436 13.144 614.84 13.048 615.288 13.048C615.72 13.048 616.1 13.152 616.428 13.36C616.764 13.56 617.028 13.828 617.22 14.164C617.412 14.5 617.508 14.868 617.508 15.268V19H615.672ZM611.82 19V13.168H613.656V19H611.82ZM619.361 19V12.544C619.361 12.096 619.461 11.692 619.661 11.332C619.861 10.972 620.141 10.688 620.501 10.48C620.869 10.264 621.305 10.156 621.809 10.156C622.081 10.156 622.329 10.192 622.553 10.264C622.777 10.336 622.993 10.452 623.201 10.612L622.289 11.956C622.209 11.9 622.129 11.86 622.049 11.836C621.977 11.812 621.897 11.8 621.809 11.8C621.609 11.8 621.457 11.86 621.353 11.98C621.249 12.092 621.197 12.248 621.197 12.448V19H619.361ZM618.077 14.728V13.168H623.945V14.728H618.077ZM623.177 19V13.168H625.013V19H623.177ZM624.101 12.748C623.829 12.748 623.601 12.656 623.417 12.472C623.241 12.28 623.153 12.048 623.153 11.776C623.153 11.504 623.241 11.276 623.417 11.092C623.601 10.908 623.829 10.816 624.101 10.816C624.381 10.816 624.609 10.908 624.785 11.092C624.961 11.276 625.049 11.504 625.049 11.776C625.049 12.048 624.961 12.28 624.785 12.472C624.609 12.656 624.381 12.748 624.101 12.748ZM628.765 21.616C628.125 21.616 627.561 21.504 627.073 21.28C626.593 21.064 626.213 20.756 625.933 20.356L627.061 19.228C627.269 19.476 627.501 19.664 627.757 19.792C628.021 19.92 628.337 19.984 628.705 19.984C629.161 19.984 629.517 19.872 629.773 19.648C630.037 19.424 630.169 19.108 630.169 18.7V17.212L630.481 15.94L630.205 14.668V13.168H632.005V18.652C632.005 19.252 631.865 19.772 631.585 20.212C631.305 20.652 630.921 20.996 630.433 21.244C629.945 21.492 629.389 21.616 628.765 21.616ZM628.681 18.82C628.145 18.82 627.669 18.692 627.253 18.436C626.837 18.18 626.509 17.832 626.269 17.392C626.029 16.952 625.909 16.464 625.909 15.928C625.909 15.384 626.029 14.896 626.269 14.464C626.509 14.024 626.837 13.68 627.253 13.432C627.669 13.176 628.145 13.048 628.681 13.048C629.081 13.048 629.437 13.124 629.749 13.276C630.069 13.42 630.325 13.628 630.517 13.9C630.717 14.164 630.829 14.472 630.853 14.824V17.044C630.829 17.388 630.717 17.696 630.517 17.968C630.325 18.232 630.069 18.44 629.749 18.592C629.429 18.744 629.073 18.82 628.681 18.82ZM629.029 17.188C629.285 17.188 629.505 17.132 629.689 17.02C629.881 16.908 630.025 16.76 630.121 16.576C630.225 16.384 630.277 16.168 630.277 15.928C630.277 15.688 630.225 15.472 630.121 15.28C630.025 15.088 629.881 14.936 629.689 14.824C629.505 14.712 629.285 14.656 629.029 14.656C628.781 14.656 628.561 14.712 628.369 14.824C628.177 14.936 628.029 15.088 627.925 15.28C627.821 15.472 627.769 15.688 627.769 15.928C627.769 16.152 627.821 16.364 627.925 16.564C628.029 16.756 628.173 16.908 628.357 17.02C628.549 17.132 628.773 17.188 629.029 17.188ZM635.892 19.132C635.356 19.132 634.88 19.024 634.464 18.808C634.056 18.584 633.736 18.28 633.504 17.896C633.272 17.504 633.156 17.056 633.156 16.552V13.168H634.992V16.528C634.992 16.728 635.024 16.9 635.088 17.044C635.16 17.188 635.264 17.3 635.4 17.38C635.536 17.46 635.7 17.5 635.892 17.5C636.164 17.5 636.38 17.416 636.54 17.248C636.7 17.072 636.78 16.832 636.78 16.528V13.168H638.616V16.54C638.616 17.052 638.5 17.504 638.268 17.896C638.036 18.28 637.716 18.584 637.308 18.808C636.9 19.024 636.428 19.132 635.892 19.132ZM639.769 19V13.168H641.605V19H639.769ZM641.605 15.796L640.837 15.196C640.989 14.516 641.245 13.988 641.605 13.612C641.965 13.236 642.465 13.048 643.105 13.048C643.385 13.048 643.629 13.092 643.837 13.18C644.053 13.26 644.241 13.388 644.401 13.564L643.309 14.944C643.229 14.856 643.129 14.788 643.009 14.74C642.889 14.692 642.753 14.668 642.601 14.668C642.297 14.668 642.053 14.764 641.869 14.956C641.693 15.14 641.605 15.42 641.605 15.796ZM644.89 19V13.168H646.726V19H644.89ZM645.814 12.364C645.526 12.364 645.286 12.268 645.094 12.076C644.91 11.876 644.818 11.636 644.818 11.356C644.818 11.068 644.91 10.828 645.094 10.636C645.286 10.444 645.526 10.348 645.814 10.348C646.102 10.348 646.338 10.444 646.522 10.636C646.706 10.828 646.798 11.068 646.798 11.356C646.798 11.636 646.706 11.876 646.522 12.076C646.338 12.268 646.102 12.364 645.814 12.364ZM651.871 19V15.676C651.871 15.372 651.775 15.128 651.583 14.944C651.399 14.752 651.163 14.656 650.875 14.656C650.675 14.656 650.499 14.7 650.347 14.788C650.195 14.868 650.075 14.988 649.987 15.148C649.899 15.3 649.855 15.476 649.855 15.676L649.147 15.328C649.147 14.872 649.247 14.472 649.447 14.128C649.647 13.784 649.923 13.52 650.275 13.336C650.635 13.144 651.039 13.048 651.487 13.048C651.919 13.048 652.299 13.152 652.627 13.36C652.963 13.56 653.227 13.828 653.419 14.164C653.611 14.5 653.707 14.868 653.707 15.268V19H651.871ZM648.019 19V13.168H649.855V19H648.019ZM657.358 21.616C656.718 21.616 656.154 21.504 655.666 21.28C655.186 21.064 654.806 20.756 654.526 20.356L655.654 19.228C655.862 19.476 656.094 19.664 656.35 19.792C656.614 19.92 656.93 19.984 657.298 19.984C657.754 19.984 658.11 19.872 658.366 19.648C658.63 19.424 658.762 19.108 658.762 18.7V17.212L659.074 15.94L658.798 14.668V13.168H660.598V18.652C660.598 19.252 660.458 19.772 660.178 20.212C659.898 20.652 659.514 20.996 659.026 21.244C658.538 21.492 657.982 21.616 657.358 21.616ZM657.274 18.82C656.738 18.82 656.262 18.692 655.846 18.436C655.43 18.18 655.102 17.832 654.862 17.392C654.622 16.952 654.502 16.464 654.502 15.928C654.502 15.384 654.622 14.896 654.862 14.464C655.102 14.024 655.43 13.68 655.846 13.432C656.262 13.176 656.738 13.048 657.274 13.048C657.674 13.048 658.03 13.124 658.342 13.276C658.662 13.42 658.918 13.628 659.11 13.9C659.31 14.164 659.422 14.472 659.446 14.824V17.044C659.422 17.388 659.31 17.696 659.11 17.968C658.918 18.232 658.662 18.44 658.342 18.592C658.022 18.744 657.666 18.82 657.274 18.82ZM657.622 17.188C657.878 17.188 658.098 17.132 658.282 17.02C658.474 16.908 658.618 16.76 658.714 16.576C658.818 16.384 658.87 16.168 658.87 15.928C658.87 15.688 658.818 15.472 658.714 15.28C658.618 15.088 658.474 14.936 658.282 14.824C658.098 14.712 657.878 14.656 657.622 14.656C657.374 14.656 657.154 14.712 656.962 14.824C656.77 14.936 656.622 15.088 656.518 15.28C656.414 15.472 656.362 15.688 656.362 15.928C656.362 16.152 656.414 16.364 656.518 16.564C656.622 16.756 656.766 16.908 656.95 17.02C657.142 17.132 657.366 17.188 657.622 17.188ZM662.434 20.524L661.426 19.564C661.938 19.06 662.33 18.444 662.602 17.716C662.874 16.98 663.01 16.152 663.01 15.232C663.01 14.304 662.874 13.476 662.602 12.748C662.33 12.02 661.938 11.408 661.426 10.912L662.434 9.94C662.89 10.332 663.278 10.804 663.598 11.356C663.918 11.908 664.162 12.512 664.33 13.168C664.498 13.824 664.582 14.512 664.582 15.232C664.582 15.952 664.498 16.64 664.33 17.296C664.162 17.952 663.918 18.556 663.598 19.108C663.278 19.66 662.89 20.132 662.434 20.524Z" fill="#02053C"/>
<path d="M508.468 59.132C507.868 59.132 507.324 59 506.836 58.736C506.348 58.472 505.964 58.108 505.684 57.644C505.404 57.18 505.264 56.66 505.264 56.084C505.264 55.5 505.404 54.98 505.684 54.524C505.972 54.06 506.36 53.696 506.848 53.432C507.336 53.168 507.884 53.036 508.492 53.036C508.948 53.036 509.364 53.116 509.74 53.276C510.124 53.428 510.464 53.66 510.76 53.972L509.584 55.148C509.448 54.996 509.288 54.884 509.104 54.812C508.928 54.74 508.724 54.704 508.492 54.704C508.228 54.704 507.992 54.764 507.784 54.884C507.584 54.996 507.424 55.156 507.304 55.364C507.192 55.564 507.136 55.8 507.136 56.072C507.136 56.344 507.192 56.584 507.304 56.792C507.424 57 507.588 57.164 507.796 57.284C508.004 57.404 508.236 57.464 508.492 57.464C508.732 57.464 508.944 57.424 509.128 57.344C509.32 57.256 509.484 57.136 509.62 56.984L510.784 58.16C510.48 58.48 510.136 58.724 509.752 58.892C509.368 59.052 508.94 59.132 508.468 59.132ZM513.896 59.12C513.361 59.12 512.881 58.988 512.457 58.724C512.041 58.46 511.709 58.1 511.461 57.644C511.221 57.188 511.101 56.668 511.101 56.084C511.101 55.5 511.221 54.98 511.461 54.524C511.709 54.068 512.041 53.708 512.457 53.444C512.881 53.18 513.361 53.048 513.896 53.048C514.289 53.048 514.641 53.124 514.953 53.276C515.273 53.428 515.533 53.64 515.733 53.912C515.933 54.176 516.045 54.48 516.069 54.824V57.344C516.045 57.688 515.933 57.996 515.733 58.268C515.541 58.532 515.285 58.74 514.965 58.892C514.645 59.044 514.289 59.12 513.896 59.12ZM514.269 57.464C514.661 57.464 514.977 57.336 515.217 57.08C515.457 56.816 515.577 56.484 515.577 56.084C515.577 55.812 515.521 55.572 515.409 55.364C515.305 55.156 515.153 54.996 514.953 54.884C514.761 54.764 514.537 54.704 514.281 54.704C514.025 54.704 513.797 54.764 513.597 54.884C513.405 54.996 513.249 55.156 513.129 55.364C513.017 55.572 512.961 55.812 512.961 56.084C512.961 56.348 513.017 56.584 513.129 56.792C513.241 57 513.397 57.164 513.597 57.284C513.797 57.404 514.021 57.464 514.269 57.464ZM515.505 59V57.428L515.781 56.012L515.505 54.596V53.168H517.305V59H515.505ZM522.449 59V55.676C522.449 55.372 522.353 55.128 522.161 54.944C521.977 54.752 521.741 54.656 521.453 54.656C521.253 54.656 521.077 54.7 520.925 54.788C520.773 54.868 520.653 54.988 520.565 55.148C520.477 55.3 520.433 55.476 520.433 55.676L519.725 55.328C519.725 54.872 519.825 54.472 520.025 54.128C520.225 53.784 520.501 53.52 520.853 53.336C521.213 53.144 521.617 53.048 522.065 53.048C522.497 53.048 522.877 53.152 523.205 53.36C523.541 53.56 523.805 53.828 523.997 54.164C524.189 54.5 524.285 54.868 524.285 55.268V59H522.449ZM518.597 59V53.168H520.433V59H518.597ZM527.948 59.12C527.396 59.12 526.904 58.988 526.472 58.724C526.048 58.46 525.712 58.1 525.464 57.644C525.224 57.188 525.104 56.668 525.104 56.084C525.104 55.5 525.224 54.98 525.464 54.524C525.712 54.068 526.048 53.708 526.472 53.444C526.904 53.18 527.396 53.048 527.948 53.048C528.348 53.048 528.708 53.124 529.028 53.276C529.356 53.428 529.624 53.64 529.832 53.912C530.048 54.176 530.168 54.48 530.192 54.824V57.284C530.168 57.628 530.052 57.94 529.844 58.22C529.636 58.492 529.368 58.712 529.04 58.88C528.712 59.04 528.348 59.12 527.948 59.12ZM528.272 57.464C528.536 57.464 528.764 57.408 528.956 57.296C529.148 57.176 529.3 57.012 529.412 56.804C529.524 56.596 529.58 56.356 529.58 56.084C529.58 55.812 529.524 55.576 529.412 55.376C529.308 55.168 529.156 55.004 528.956 54.884C528.764 54.764 528.54 54.704 528.284 54.704C528.028 54.704 527.8 54.764 527.6 54.884C527.408 55.004 527.252 55.168 527.132 55.376C527.02 55.584 526.964 55.82 526.964 56.084C526.964 56.348 527.02 56.584 527.132 56.792C527.244 57 527.4 57.164 527.6 57.284C527.8 57.404 528.024 57.464 528.272 57.464ZM531.308 59H529.508V57.428L529.784 56.012L529.472 54.596V50.288H531.308V59ZM532.601 59V53.168H534.437V59H532.601ZM533.525 52.364C533.237 52.364 532.997 52.268 532.805 52.076C532.621 51.876 532.529 51.636 532.529 51.356C532.529 51.068 532.621 50.828 532.805 50.636C532.997 50.444 533.237 50.348 533.525 50.348C533.813 50.348 534.049 50.444 534.233 50.636C534.417 50.828 534.509 51.068 534.509 51.356C534.509 51.636 534.417 51.876 534.233 52.076C534.049 52.268 533.813 52.364 533.525 52.364ZM538.214 59.12C537.662 59.12 537.17 58.988 536.738 58.724C536.314 58.46 535.978 58.1 535.73 57.644C535.49 57.188 535.37 56.668 535.37 56.084C535.37 55.5 535.49 54.98 535.73 54.524C535.978 54.068 536.314 53.708 536.738 53.444C537.17 53.18 537.662 53.048 538.214 53.048C538.614 53.048 538.974 53.124 539.294 53.276C539.622 53.428 539.89 53.64 540.098 53.912C540.314 54.176 540.434 54.48 540.458 54.824V57.284C540.434 57.628 540.318 57.94 540.11 58.22C539.902 58.492 539.634 58.712 539.306 58.88C538.978 59.04 538.614 59.12 538.214 59.12ZM538.538 57.464C538.802 57.464 539.03 57.408 539.222 57.296C539.414 57.176 539.566 57.012 539.678 56.804C539.79 56.596 539.846 56.356 539.846 56.084C539.846 55.812 539.79 55.576 539.678 55.376C539.574 55.168 539.422 55.004 539.222 54.884C539.03 54.764 538.806 54.704 538.55 54.704C538.294 54.704 538.066 54.764 537.866 54.884C537.674 55.004 537.518 55.168 537.398 55.376C537.286 55.584 537.23 55.82 537.23 56.084C537.23 56.348 537.286 56.584 537.398 56.792C537.51 57 537.666 57.164 537.866 57.284C538.066 57.404 538.29 57.464 538.538 57.464ZM541.574 59H539.774V57.428L540.05 56.012L539.738 54.596V50.288H541.574V59ZM545.303 59.12C544.767 59.12 544.287 58.988 543.863 58.724C543.447 58.46 543.115 58.1 542.867 57.644C542.627 57.188 542.507 56.668 542.507 56.084C542.507 55.5 542.627 54.98 542.867 54.524C543.115 54.068 543.447 53.708 543.863 53.444C544.287 53.18 544.767 53.048 545.303 53.048C545.695 53.048 546.047 53.124 546.359 53.276C546.679 53.428 546.939 53.64 547.139 53.912C547.339 54.176 547.451 54.48 547.475 54.824V57.344C547.451 57.688 547.339 57.996 547.139 58.268C546.947 58.532 546.691 58.74 546.371 58.892C546.051 59.044 545.695 59.12 545.303 59.12ZM545.675 57.464C546.067 57.464 546.383 57.336 546.623 57.08C546.863 56.816 546.983 56.484 546.983 56.084C546.983 55.812 546.927 55.572 546.815 55.364C546.711 55.156 546.559 54.996 546.359 54.884C546.167 54.764 545.943 54.704 545.687 54.704C545.431 54.704 545.203 54.764 545.003 54.884C544.811 54.996 544.655 55.156 544.535 55.364C544.423 55.572 544.367 55.812 544.367 56.084C544.367 56.348 544.423 56.584 544.535 56.792C544.647 57 544.803 57.164 545.003 57.284C545.203 57.404 545.427 57.464 545.675 57.464ZM546.911 59V57.428L547.187 56.012L546.911 54.596V53.168H548.711V59H546.911ZM550.831 59V50.756H552.667V59H550.831ZM549.511 54.728V53.168H553.987V54.728H549.511ZM557.559 59.132C556.927 59.132 556.363 59.004 555.867 58.748C555.379 58.484 554.995 58.12 554.715 57.656C554.435 57.192 554.295 56.668 554.295 56.084C554.295 55.5 554.431 54.98 554.703 54.524C554.983 54.06 555.359 53.696 555.831 53.432C556.303 53.168 556.835 53.036 557.427 53.036C558.003 53.036 558.511 53.16 558.951 53.408C559.391 53.656 559.735 54 559.983 54.44C560.239 54.88 560.367 55.384 560.367 55.952C560.367 56.056 560.359 56.168 560.343 56.288C560.335 56.4 560.315 56.532 560.283 56.684L555.255 56.696V55.436L559.503 55.424L558.711 55.952C558.703 55.616 558.651 55.34 558.555 55.124C558.459 54.9 558.315 54.732 558.123 54.62C557.939 54.5 557.711 54.44 557.439 54.44C557.151 54.44 556.899 54.508 556.683 54.644C556.475 54.772 556.311 54.956 556.191 55.196C556.079 55.436 556.023 55.728 556.023 56.072C556.023 56.416 556.083 56.712 556.203 56.96C556.331 57.2 556.507 57.388 556.731 57.524C556.963 57.652 557.235 57.716 557.547 57.716C557.835 57.716 558.095 57.668 558.327 57.572C558.559 57.468 558.763 57.316 558.939 57.116L559.947 58.124C559.659 58.46 559.311 58.712 558.903 58.88C558.495 59.048 558.047 59.132 557.559 59.132ZM563.707 59V50.528H565.591V59H563.707ZM565.159 59V57.344H569.347V59H565.159ZM570.433 59V50.528H572.317V59H570.433ZM571.873 59V57.368H576.517V59H571.873ZM571.873 55.46V53.888H576.097V55.46H571.873ZM571.873 52.148V50.528H576.457V52.148H571.873ZM579.088 59V57.344H581.188C581.7 57.344 582.148 57.244 582.532 57.044C582.916 56.836 583.212 56.536 583.42 56.144C583.628 55.752 583.732 55.288 583.732 54.752C583.732 54.216 583.624 53.756 583.408 53.372C583.2 52.988 582.904 52.692 582.52 52.484C582.144 52.276 581.7 52.172 581.188 52.172H579.028V50.528H581.212C581.852 50.528 582.44 50.632 582.976 50.84C583.52 51.04 583.992 51.332 584.392 51.716C584.8 52.092 585.112 52.54 585.328 53.06C585.552 53.572 585.664 54.14 585.664 54.764C585.664 55.38 585.552 55.948 585.328 56.468C585.112 56.988 584.804 57.436 584.404 57.812C584.004 58.188 583.532 58.48 582.988 58.688C582.452 58.896 581.868 59 581.236 59H579.088ZM577.816 59V50.528H579.7V59H577.816ZM592.34 59.12C591.948 59.12 591.588 59.044 591.26 58.892C590.932 58.74 590.664 58.532 590.456 58.268C590.248 57.996 590.128 57.688 590.096 57.344V54.884C590.128 54.54 590.248 54.228 590.456 53.948C590.664 53.668 590.932 53.448 591.26 53.288C591.588 53.128 591.948 53.048 592.34 53.048C592.892 53.048 593.38 53.18 593.804 53.444C594.236 53.708 594.572 54.068 594.812 54.524C595.06 54.98 595.184 55.5 595.184 56.084C595.184 56.668 595.06 57.188 594.812 57.644C594.572 58.1 594.236 58.46 593.804 58.724C593.38 58.988 592.892 59.12 592.34 59.12ZM588.98 61.46V53.168H590.816V54.668L590.516 56.084L590.792 57.5V61.46H588.98ZM592.004 57.464C592.268 57.464 592.496 57.404 592.688 57.284C592.888 57.164 593.044 57 593.156 56.792C593.268 56.584 593.324 56.348 593.324 56.084C593.324 55.812 593.268 55.572 593.156 55.364C593.044 55.156 592.888 54.996 592.688 54.884C592.496 54.764 592.272 54.704 592.016 54.704C591.76 54.704 591.532 54.764 591.332 54.884C591.14 54.996 590.988 55.156 590.876 55.364C590.764 55.572 590.708 55.812 590.708 56.084C590.708 56.348 590.76 56.584 590.864 56.792C590.976 57 591.132 57.164 591.332 57.284C591.532 57.404 591.756 57.464 592.004 57.464ZM598.925 59.132C598.325 59.132 597.781 59 597.293 58.736C596.813 58.464 596.433 58.096 596.153 57.632C595.873 57.168 595.733 56.648 595.733 56.072C595.733 55.496 595.873 54.98 596.153 54.524C596.433 54.068 596.813 53.708 597.293 53.444C597.773 53.172 598.317 53.036 598.925 53.036C599.533 53.036 600.077 53.168 600.557 53.432C601.037 53.696 601.417 54.06 601.697 54.524C601.977 54.98 602.117 55.496 602.117 56.072C602.117 56.648 601.977 57.168 601.697 57.632C601.417 58.096 601.037 58.464 600.557 58.736C600.077 59 599.533 59.132 598.925 59.132ZM598.925 57.464C599.189 57.464 599.421 57.408 599.621 57.296C599.821 57.176 599.973 57.012 600.077 56.804C600.189 56.588 600.245 56.344 600.245 56.072C600.245 55.8 600.189 55.564 600.077 55.364C599.965 55.156 599.809 54.996 599.609 54.884C599.417 54.764 599.189 54.704 598.925 54.704C598.669 54.704 598.441 54.764 598.241 54.884C598.041 54.996 597.885 55.156 597.773 55.364C597.661 55.572 597.605 55.812 597.605 56.084C597.605 56.348 597.661 56.588 597.773 56.804C597.885 57.012 598.041 57.176 598.241 57.296C598.441 57.408 598.669 57.464 598.925 57.464ZM605.155 59.144C604.811 59.144 604.471 59.1 604.135 59.012C603.807 58.924 603.499 58.8 603.211 58.64C602.931 58.472 602.691 58.28 602.491 58.064L603.535 57.008C603.727 57.216 603.955 57.38 604.219 57.5C604.483 57.612 604.771 57.668 605.083 57.668C605.299 57.668 605.463 57.636 605.575 57.572C605.695 57.508 605.755 57.42 605.755 57.308C605.755 57.164 605.683 57.056 605.539 56.984C605.403 56.904 605.227 56.836 605.011 56.78C604.795 56.716 604.567 56.648 604.327 56.576C604.087 56.504 603.859 56.404 603.643 56.276C603.427 56.148 603.251 55.972 603.115 55.748C602.979 55.516 602.911 55.224 602.911 54.872C602.911 54.496 603.007 54.172 603.199 53.9C603.391 53.62 603.663 53.4 604.015 53.24C604.367 53.08 604.779 53 605.251 53C605.747 53 606.203 53.088 606.619 53.264C607.043 53.432 607.387 53.684 607.651 54.02L606.607 55.076C606.423 54.86 606.215 54.708 605.983 54.62C605.759 54.532 605.539 54.488 605.323 54.488C605.115 54.488 604.959 54.52 604.855 54.584C604.751 54.64 604.699 54.724 604.699 54.836C604.699 54.956 604.767 55.052 604.903 55.124C605.039 55.196 605.215 55.26 605.431 55.316C605.647 55.372 605.875 55.44 606.115 55.52C606.355 55.6 606.583 55.708 606.799 55.844C607.015 55.98 607.191 56.164 607.327 56.396C607.463 56.62 607.531 56.916 607.531 57.284C607.531 57.852 607.315 58.304 606.883 58.64C606.459 58.976 605.883 59.144 605.155 59.144ZM608.527 59V53.168H610.363V59H608.527ZM609.451 52.364C609.163 52.364 608.923 52.268 608.731 52.076C608.547 51.876 608.455 51.636 608.455 51.356C608.455 51.068 608.547 50.828 608.731 50.636C608.923 50.444 609.163 50.348 609.451 50.348C609.739 50.348 609.975 50.444 610.159 50.636C610.343 50.828 610.435 51.068 610.435 51.356C610.435 51.636 610.343 51.876 610.159 52.076C609.975 52.268 609.739 52.364 609.451 52.364ZM612.484 59V50.756H614.32V59H612.484ZM611.164 54.728V53.168H615.64V54.728H611.164ZM616.449 59V53.168H618.285V59H616.449ZM617.373 52.364C617.085 52.364 616.845 52.268 616.653 52.076C616.469 51.876 616.377 51.636 616.377 51.356C616.377 51.068 616.469 50.828 616.653 50.636C616.845 50.444 617.085 50.348 617.373 50.348C617.661 50.348 617.897 50.444 618.081 50.636C618.265 50.828 618.357 51.068 618.357 51.356C618.357 51.636 618.265 51.876 618.081 52.076C617.897 52.268 617.661 52.364 617.373 52.364ZM622.386 59.132C621.786 59.132 621.242 59 620.754 58.736C620.274 58.464 619.894 58.096 619.614 57.632C619.334 57.168 619.194 56.648 619.194 56.072C619.194 55.496 619.334 54.98 619.614 54.524C619.894 54.068 620.274 53.708 620.754 53.444C621.234 53.172 621.778 53.036 622.386 53.036C622.994 53.036 623.538 53.168 624.018 53.432C624.498 53.696 624.878 54.06 625.158 54.524C625.438 54.98 625.578 55.496 625.578 56.072C625.578 56.648 625.438 57.168 625.158 57.632C624.878 58.096 624.498 58.464 624.018 58.736C623.538 59 622.994 59.132 622.386 59.132ZM622.386 57.464C622.65 57.464 622.882 57.408 623.082 57.296C623.282 57.176 623.434 57.012 623.538 56.804C623.65 56.588 623.706 56.344 623.706 56.072C623.706 55.8 623.65 55.564 623.538 55.364C623.426 55.156 623.27 54.996 623.07 54.884C622.878 54.764 622.65 54.704 622.386 54.704C622.13 54.704 621.902 54.764 621.702 54.884C621.502 54.996 621.346 55.156 621.234 55.364C621.122 55.572 621.066 55.812 621.066 56.084C621.066 56.348 621.122 56.588 621.234 56.804C621.346 57.012 621.502 57.176 621.702 57.296C621.902 57.408 622.13 57.464 622.386 57.464ZM630.344 59V55.676C630.344 55.372 630.248 55.128 630.056 54.944C629.872 54.752 629.636 54.656 629.348 54.656C629.148 54.656 628.972 54.7 628.82 54.788C628.668 54.868 628.548 54.988 628.46 55.148C628.372 55.3 628.328 55.476 628.328 55.676L627.62 55.328C627.62 54.872 627.72 54.472 627.92 54.128C628.12 53.784 628.396 53.52 628.748 53.336C629.108 53.144 629.512 53.048 629.96 53.048C630.392 53.048 630.772 53.152 631.1 53.36C631.436 53.56 631.7 53.828 631.892 54.164C632.084 54.5 632.18 54.868 632.18 55.268V59H630.344ZM626.492 59V53.168H628.328V59H626.492Z" fill="#02053C"/>
<path d="M507.772 99.144C507.428 99.144 507.088 99.1 506.752 99.012C506.424 98.924 506.116 98.8 505.828 98.64C505.548 98.472 505.308 98.28 505.108 98.064L506.152 97.008C506.344 97.216 506.572 97.38 506.836 97.5C507.1 97.612 507.388 97.668 507.7 97.668C507.916 97.668 508.08 97.636 508.192 97.572C508.312 97.508 508.372 97.42 508.372 97.308C508.372 97.164 508.3 97.056 508.156 96.984C508.02 96.904 507.844 96.836 507.628 96.78C507.412 96.716 507.184 96.648 506.944 96.576C506.704 96.504 506.476 96.404 506.26 96.276C506.044 96.148 505.868 95.972 505.732 95.748C505.596 95.516 505.528 95.224 505.528 94.872C505.528 94.496 505.624 94.172 505.816 93.9C506.008 93.62 506.28 93.4 506.632 93.24C506.984 93.08 507.396 93 507.868 93C508.364 93 508.82 93.088 509.236 93.264C509.66 93.432 510.004 93.684 510.268 94.02L509.224 95.076C509.04 94.86 508.832 94.708 508.6 94.62C508.376 94.532 508.156 94.488 507.94 94.488C507.732 94.488 507.576 94.52 507.472 94.584C507.368 94.64 507.316 94.724 507.316 94.836C507.316 94.956 507.384 95.052 507.52 95.124C507.656 95.196 507.832 95.26 508.048 95.316C508.264 95.372 508.492 95.44 508.732 95.52C508.972 95.6 509.2 95.708 509.416 95.844C509.632 95.98 509.808 96.164 509.944 96.396C510.08 96.62 510.148 96.916 510.148 97.284C510.148 97.852 509.932 98.304 509.5 98.64C509.076 98.976 508.5 99.144 507.772 99.144ZM511.144 99V93.168H512.98V99H511.144ZM512.068 92.364C511.78 92.364 511.54 92.268 511.348 92.076C511.164 91.876 511.072 91.636 511.072 91.356C511.072 91.068 511.164 90.828 511.348 90.636C511.54 90.444 511.78 90.348 512.068 90.348C512.356 90.348 512.592 90.444 512.776 90.636C512.96 90.828 513.052 91.068 513.052 91.356C513.052 91.636 512.96 91.876 512.776 92.076C512.592 92.268 512.356 92.364 512.068 92.364ZM516.757 99.12C516.205 99.12 515.713 98.988 515.281 98.724C514.857 98.46 514.521 98.1 514.273 97.644C514.033 97.188 513.913 96.668 513.913 96.084C513.913 95.5 514.033 94.98 514.273 94.524C514.521 94.068 514.857 93.708 515.281 93.444C515.713 93.18 516.205 93.048 516.757 93.048C517.157 93.048 517.517 93.124 517.837 93.276C518.165 93.428 518.433 93.64 518.641 93.912C518.857 94.176 518.977 94.48 519.001 94.824V97.284C518.977 97.628 518.861 97.94 518.653 98.22C518.445 98.492 518.177 98.712 517.849 98.88C517.521 99.04 517.157 99.12 516.757 99.12ZM517.081 97.464C517.345 97.464 517.573 97.408 517.765 97.296C517.957 97.176 518.109 97.012 518.221 96.804C518.333 96.596 518.389 96.356 518.389 96.084C518.389 95.812 518.333 95.576 518.221 95.376C518.117 95.168 517.965 95.004 517.765 94.884C517.573 94.764 517.349 94.704 517.093 94.704C516.837 94.704 516.609 94.764 516.409 94.884C516.217 95.004 516.061 95.168 515.941 95.376C515.829 95.584 515.773 95.82 515.773 96.084C515.773 96.348 515.829 96.584 515.941 96.792C516.053 97 516.209 97.164 516.409 97.284C516.609 97.404 516.833 97.464 517.081 97.464ZM520.117 99H518.317V97.428L518.593 96.012L518.281 94.596V90.288H520.117V99ZM524.29 99.132C523.658 99.132 523.094 99.004 522.598 98.748C522.11 98.484 521.726 98.12 521.446 97.656C521.166 97.192 521.026 96.668 521.026 96.084C521.026 95.5 521.162 94.98 521.434 94.524C521.714 94.06 522.09 93.696 522.562 93.432C523.034 93.168 523.566 93.036 524.158 93.036C524.734 93.036 525.242 93.16 525.682 93.408C526.122 93.656 526.466 94 526.714 94.44C526.97 94.88 527.098 95.384 527.098 95.952C527.098 96.056 527.09 96.168 527.074 96.288C527.066 96.4 527.046 96.532 527.014 96.684L521.986 96.696V95.436L526.234 95.424L525.442 95.952C525.434 95.616 525.382 95.34 525.286 95.124C525.19 94.9 525.046 94.732 524.854 94.62C524.67 94.5 524.442 94.44 524.17 94.44C523.882 94.44 523.63 94.508 523.414 94.644C523.206 94.772 523.042 94.956 522.922 95.196C522.81 95.436 522.754 95.728 522.754 96.072C522.754 96.416 522.814 96.712 522.934 96.96C523.062 97.2 523.238 97.388 523.462 97.524C523.694 97.652 523.966 97.716 524.278 97.716C524.566 97.716 524.826 97.668 525.058 97.572C525.29 97.468 525.494 97.316 525.67 97.116L526.678 98.124C526.39 98.46 526.042 98.712 525.634 98.88C525.226 99.048 524.778 99.132 524.29 99.132ZM530.437 99V90.528H532.321V99H530.437ZM531.889 99V97.344H536.077V99H531.889ZM537.164 99V90.528H539.048V99H537.164ZM538.604 99V97.368H543.248V99H538.604ZM538.604 95.46V93.888H542.828V95.46H538.604ZM538.604 92.148V90.528H543.188V92.148H538.604ZM545.818 99V97.344H547.918C548.43 97.344 548.878 97.244 549.262 97.044C549.646 96.836 549.942 96.536 550.15 96.144C550.358 95.752 550.462 95.288 550.462 94.752C550.462 94.216 550.354 93.756 550.138 93.372C549.93 92.988 549.634 92.692 549.25 92.484C548.874 92.276 548.43 92.172 547.918 92.172H545.758V90.528H547.942C548.582 90.528 549.17 90.632 549.706 90.84C550.25 91.04 550.722 91.332 551.122 91.716C551.53 92.092 551.842 92.54 552.058 93.06C552.282 93.572 552.394 94.14 552.394 94.764C552.394 95.38 552.282 95.948 552.058 96.468C551.842 96.988 551.534 97.436 551.134 97.812C550.734 98.188 550.262 98.48 549.718 98.688C549.182 98.896 548.598 99 547.966 99H545.818ZM544.546 99V90.528H546.43V99H544.546ZM557.595 100.524C557.139 100.132 556.751 99.66 556.431 99.108C556.111 98.556 555.867 97.952 555.699 97.296C555.531 96.64 555.447 95.952 555.447 95.232C555.447 94.512 555.531 93.824 555.699 93.168C555.867 92.512 556.111 91.908 556.431 91.356C556.751 90.804 557.139 90.332 557.595 89.94L558.603 90.912C558.091 91.408 557.699 92.02 557.427 92.748C557.155 93.476 557.019 94.304 557.019 95.232C557.019 96.152 557.155 96.98 557.427 97.716C557.699 98.444 558.091 99.06 558.603 99.564L557.595 100.524ZM562.245 99.132C561.645 99.132 561.101 99 560.613 98.736C560.125 98.472 559.741 98.108 559.461 97.644C559.181 97.18 559.041 96.66 559.041 96.084C559.041 95.5 559.181 94.98 559.461 94.524C559.749 94.06 560.137 93.696 560.625 93.432C561.113 93.168 561.661 93.036 562.269 93.036C562.725 93.036 563.141 93.116 563.517 93.276C563.901 93.428 564.241 93.66 564.537 93.972L563.361 95.148C563.225 94.996 563.065 94.884 562.881 94.812C562.705 94.74 562.501 94.704 562.269 94.704C562.005 94.704 561.769 94.764 561.561 94.884C561.361 94.996 561.201 95.156 561.081 95.364C560.969 95.564 560.913 95.8 560.913 96.072C560.913 96.344 560.969 96.584 561.081 96.792C561.201 97 561.365 97.164 561.573 97.284C561.781 97.404 562.013 97.464 562.269 97.464C562.509 97.464 562.721 97.424 562.905 97.344C563.097 97.256 563.261 97.136 563.397 96.984L564.561 98.16C564.257 98.48 563.913 98.724 563.529 98.892C563.145 99.052 562.717 99.132 562.245 99.132ZM568.046 99.132C567.446 99.132 566.902 99 566.414 98.736C565.934 98.464 565.554 98.096 565.274 97.632C564.994 97.168 564.854 96.648 564.854 96.072C564.854 95.496 564.994 94.98 565.274 94.524C565.554 94.068 565.934 93.708 566.414 93.444C566.894 93.172 567.438 93.036 568.046 93.036C568.654 93.036 569.198 93.168 569.678 93.432C570.158 93.696 570.538 94.06 570.818 94.524C571.098 94.98 571.238 95.496 571.238 96.072C571.238 96.648 571.098 97.168 570.818 97.632C570.538 98.096 570.158 98.464 569.678 98.736C569.198 99 568.654 99.132 568.046 99.132ZM568.046 97.464C568.31 97.464 568.542 97.408 568.742 97.296C568.942 97.176 569.094 97.012 569.198 96.804C569.31 96.588 569.366 96.344 569.366 96.072C569.366 95.8 569.31 95.564 569.198 95.364C569.086 95.156 568.93 94.996 568.73 94.884C568.538 94.764 568.31 94.704 568.046 94.704C567.79 94.704 567.562 94.764 567.362 94.884C567.162 94.996 567.006 95.156 566.894 95.364C566.782 95.572 566.726 95.812 566.726 96.084C566.726 96.348 566.782 96.588 566.894 96.804C567.006 97.012 567.162 97.176 567.362 97.296C567.562 97.408 567.79 97.464 568.046 97.464ZM576.004 99V95.676C576.004 95.372 575.908 95.128 575.716 94.944C575.532 94.752 575.296 94.656 575.008 94.656C574.808 94.656 574.632 94.7 574.48 94.788C574.328 94.868 574.208 94.988 574.12 95.148C574.032 95.3 573.988 95.476 573.988 95.676L573.28 95.328C573.28 94.872 573.38 94.472 573.58 94.128C573.78 93.784 574.056 93.52 574.408 93.336C574.768 93.144 575.172 93.048 575.62 93.048C576.052 93.048 576.432 93.152 576.76 93.36C577.096 93.56 577.36 93.828 577.552 94.164C577.744 94.5 577.84 94.868 577.84 95.268V99H576.004ZM572.152 99V93.168H573.988V99H572.152ZM579.693 99V92.544C579.693 92.096 579.793 91.692 579.993 91.332C580.193 90.972 580.473 90.688 580.833 90.48C581.201 90.264 581.637 90.156 582.141 90.156C582.413 90.156 582.661 90.192 582.885 90.264C583.109 90.336 583.325 90.452 583.533 90.612L582.621 91.956C582.541 91.9 582.461 91.86 582.381 91.836C582.309 91.812 582.229 91.8 582.141 91.8C581.941 91.8 581.789 91.86 581.685 91.98C581.581 92.092 581.529 92.248 581.529 92.448V99H579.693ZM578.409 94.728V93.168H584.277V94.728H578.409ZM583.509 99V93.168H585.345V99H583.509ZM584.433 92.748C584.161 92.748 583.933 92.656 583.749 92.472C583.573 92.28 583.485 92.048 583.485 91.776C583.485 91.504 583.573 91.276 583.749 91.092C583.933 90.908 584.161 90.816 584.433 90.816C584.713 90.816 584.941 90.908 585.117 91.092C585.293 91.276 585.381 91.504 585.381 91.776C585.381 92.048 585.293 92.28 585.117 92.472C584.941 92.656 584.713 92.748 584.433 92.748ZM589.097 101.616C588.457 101.616 587.893 101.504 587.405 101.28C586.925 101.064 586.545 100.756 586.265 100.356L587.393 99.228C587.601 99.476 587.833 99.664 588.089 99.792C588.353 99.92 588.669 99.984 589.037 99.984C589.493 99.984 589.849 99.872 590.105 99.648C590.369 99.424 590.501 99.108 590.501 98.7V97.212L590.813 95.94L590.537 94.668V93.168H592.337V98.652C592.337 99.252 592.197 99.772 591.917 100.212C591.637 100.652 591.253 100.996 590.765 101.244C590.277 101.492 589.721 101.616 589.097 101.616ZM589.013 98.82C588.477 98.82 588.001 98.692 587.585 98.436C587.169 98.18 586.841 97.832 586.601 97.392C586.361 96.952 586.241 96.464 586.241 95.928C586.241 95.384 586.361 94.896 586.601 94.464C586.841 94.024 587.169 93.68 587.585 93.432C588.001 93.176 588.477 93.048 589.013 93.048C589.413 93.048 589.769 93.124 590.081 93.276C590.401 93.42 590.657 93.628 590.849 93.9C591.049 94.164 591.161 94.472 591.185 94.824V97.044C591.161 97.388 591.049 97.696 590.849 97.968C590.657 98.232 590.401 98.44 590.081 98.592C589.761 98.744 589.405 98.82 589.013 98.82ZM589.361 97.188C589.617 97.188 589.837 97.132 590.021 97.02C590.213 96.908 590.357 96.76 590.453 96.576C590.557 96.384 590.609 96.168 590.609 95.928C590.609 95.688 590.557 95.472 590.453 95.28C590.357 95.088 590.213 94.936 590.021 94.824C589.837 94.712 589.617 94.656 589.361 94.656C589.113 94.656 588.893 94.712 588.701 94.824C588.509 94.936 588.361 95.088 588.257 95.28C588.153 95.472 588.101 95.688 588.101 95.928C588.101 96.152 588.153 96.364 588.257 96.564C588.361 96.756 588.505 96.908 588.689 97.02C588.881 97.132 589.105 97.188 589.361 97.188ZM596.224 99.132C595.688 99.132 595.212 99.024 594.796 98.808C594.388 98.584 594.068 98.28 593.836 97.896C593.604 97.504 593.488 97.056 593.488 96.552V93.168H595.324V96.528C595.324 96.728 595.356 96.9 595.42 97.044C595.492 97.188 595.596 97.3 595.732 97.38C595.868 97.46 596.032 97.5 596.224 97.5C596.496 97.5 596.712 97.416 596.872 97.248C597.032 97.072 597.112 96.832 597.112 96.528V93.168H598.948V96.54C598.948 97.052 598.832 97.504 598.6 97.896C598.368 98.28 598.048 98.584 597.64 98.808C597.232 99.024 596.76 99.132 596.224 99.132ZM600.101 99V93.168H601.937V99H600.101ZM601.937 95.796L601.169 95.196C601.321 94.516 601.577 93.988 601.937 93.612C602.297 93.236 602.797 93.048 603.437 93.048C603.717 93.048 603.961 93.092 604.169 93.18C604.385 93.26 604.573 93.388 604.733 93.564L603.641 94.944C603.561 94.856 603.461 94.788 603.341 94.74C603.221 94.692 603.085 94.668 602.933 94.668C602.629 94.668 602.385 94.764 602.201 94.956C602.025 95.14 601.937 95.42 601.937 95.796ZM605.222 99V93.168H607.058V99H605.222ZM606.146 92.364C605.858 92.364 605.618 92.268 605.426 92.076C605.242 91.876 605.15 91.636 605.15 91.356C605.15 91.068 605.242 90.828 605.426 90.636C605.618 90.444 605.858 90.348 606.146 90.348C606.434 90.348 606.67 90.444 606.854 90.636C607.038 90.828 607.13 91.068 607.13 91.356C607.13 91.636 607.038 91.876 606.854 92.076C606.67 92.268 606.434 92.364 606.146 92.364ZM612.203 99V95.676C612.203 95.372 612.107 95.128 611.915 94.944C611.731 94.752 611.495 94.656 611.207 94.656C611.007 94.656 610.831 94.7 610.679 94.788C610.527 94.868 610.407 94.988 610.319 95.148C610.231 95.3 610.187 95.476 610.187 95.676L609.479 95.328C609.479 94.872 609.579 94.472 609.779 94.128C609.979 93.784 610.255 93.52 610.607 93.336C610.967 93.144 611.371 93.048 611.819 93.048C612.251 93.048 612.631 93.152 612.959 93.36C613.295 93.56 613.559 93.828 613.751 94.164C613.943 94.5 614.039 94.868 614.039 95.268V99H612.203ZM608.351 99V93.168H610.187V99H608.351ZM617.69 101.616C617.05 101.616 616.486 101.504 615.998 101.28C615.518 101.064 615.138 100.756 614.858 100.356L615.986 99.228C616.194 99.476 616.426 99.664 616.682 99.792C616.946 99.92 617.262 99.984 617.63 99.984C618.086 99.984 618.442 99.872 618.698 99.648C618.962 99.424 619.094 99.108 619.094 98.7V97.212L619.406 95.94L619.13 94.668V93.168H620.93V98.652C620.93 99.252 620.79 99.772 620.51 100.212C620.23 100.652 619.846 100.996 619.358 101.244C618.87 101.492 618.314 101.616 617.69 101.616ZM617.606 98.82C617.07 98.82 616.594 98.692 616.178 98.436C615.762 98.18 615.434 97.832 615.194 97.392C614.954 96.952 614.834 96.464 614.834 95.928C614.834 95.384 614.954 94.896 615.194 94.464C615.434 94.024 615.762 93.68 616.178 93.432C616.594 93.176 617.07 93.048 617.606 93.048C618.006 93.048 618.362 93.124 618.674 93.276C618.994 93.42 619.25 93.628 619.442 93.9C619.642 94.164 619.754 94.472 619.778 94.824V97.044C619.754 97.388 619.642 97.696 619.442 97.968C619.25 98.232 618.994 98.44 618.674 98.592C618.354 98.744 617.998 98.82 617.606 98.82ZM617.954 97.188C618.21 97.188 618.43 97.132 618.614 97.02C618.806 96.908 618.95 96.76 619.046 96.576C619.15 96.384 619.202 96.168 619.202 95.928C619.202 95.688 619.15 95.472 619.046 95.28C618.95 95.088 618.806 94.936 618.614 94.824C618.43 94.712 618.21 94.656 617.954 94.656C617.706 94.656 617.486 94.712 617.294 94.824C617.102 94.936 616.954 95.088 616.85 95.28C616.746 95.472 616.694 95.688 616.694 95.928C616.694 96.152 616.746 96.364 616.85 96.564C616.954 96.756 617.098 96.908 617.282 97.02C617.474 97.132 617.698 97.188 617.954 97.188ZM622.766 100.524L621.758 99.564C622.27 99.06 622.662 98.444 622.934 97.716C623.206 96.98 623.342 96.152 623.342 95.232C623.342 94.304 623.206 93.476 622.934 92.748C622.662 92.02 622.27 91.408 621.758 90.912L622.766 89.94C623.222 90.332 623.61 90.804 623.93 91.356C624.25 91.908 624.494 92.512 624.662 93.168C624.83 93.824 624.914 94.512 624.914 95.232C624.914 95.952 624.83 96.64 624.662 97.296C624.494 97.952 624.25 98.556 623.93 99.108C623.61 99.66 623.222 100.132 622.766 100.524Z" fill="#02053C"/>
<path d="M133.59 348.184L136.686 344.896C136.942 344.624 137.15 344.38 137.31 344.164C137.47 343.948 137.586 343.744 137.658 343.552C137.73 343.36 137.766 343.164 137.766 342.964C137.766 342.588 137.642 342.296 137.394 342.088C137.154 341.872 136.846 341.764 136.47 341.764C136.07 341.764 135.718 341.864 135.414 342.064C135.11 342.264 134.838 342.576 134.598 343L133.638 342.208C133.966 341.64 134.37 341.212 134.85 340.924C135.33 340.628 135.886 340.48 136.518 340.48C137.038 340.48 137.494 340.584 137.886 340.792C138.278 341 138.582 341.292 138.798 341.668C139.014 342.036 139.122 342.464 139.122 342.952C139.122 343.304 139.078 343.62 138.99 343.9C138.91 344.172 138.77 344.448 138.57 344.728C138.37 345 138.094 345.32 137.742 345.688L135.366 348.148L133.59 348.184ZM133.59 349V348.184L134.778 347.764H139.29V349H133.59Z" fill="#02053C"/>
<path d="M384.59 435.184L387.686 431.896C387.942 431.624 388.15 431.38 388.31 431.164C388.47 430.948 388.586 430.744 388.658 430.552C388.73 430.36 388.766 430.164 388.766 429.964C388.766 429.588 388.642 429.296 388.394 429.088C388.154 428.872 387.846 428.764 387.47 428.764C387.07 428.764 386.718 428.864 386.414 429.064C386.11 429.264 385.838 429.576 385.598 430L384.638 429.208C384.966 428.64 385.37 428.212 385.85 427.924C386.33 427.628 386.886 427.48 387.518 427.48C388.038 427.48 388.494 427.584 388.886 427.792C389.278 428 389.582 428.292 389.798 428.668C390.014 429.036 390.122 429.464 390.122 429.952C390.122 430.304 390.078 430.62 389.99 430.9C389.91 431.172 389.77 431.448 389.57 431.728C389.37 432 389.094 432.32 388.742 432.688L386.366 435.148L384.59 435.184ZM384.59 436V435.184L385.778 434.764H390.29V436H384.59Z" fill="#02053C"/>
<path d="M187.016 436.12C186.384 436.12 185.804 435.944 185.276 435.592C184.756 435.232 184.34 434.728 184.028 434.08C183.716 433.432 183.56 432.668 183.56 431.788C183.56 430.908 183.712 430.148 184.016 429.508C184.328 428.86 184.744 428.36 185.264 428.008C185.784 427.656 186.36 427.48 186.992 427.48C187.632 427.48 188.212 427.656 188.732 428.008C189.252 428.36 189.664 428.86 189.968 429.508C190.28 430.148 190.436 430.912 190.436 431.8C190.436 432.68 190.28 433.444 189.968 434.092C189.664 434.74 189.252 435.24 188.732 435.592C188.22 435.944 187.648 436.12 187.016 436.12ZM186.992 434.824C187.408 434.824 187.768 434.712 188.072 434.488C188.376 434.264 188.612 433.928 188.78 433.48C188.956 433.032 189.044 432.468 189.044 431.788C189.044 431.116 188.956 430.556 188.78 430.108C188.612 429.66 188.372 429.328 188.06 429.112C187.756 428.888 187.4 428.776 186.992 428.776C186.584 428.776 186.224 428.888 185.912 429.112C185.608 429.328 185.372 429.66 185.204 430.108C185.036 430.548 184.952 431.108 184.952 431.788C184.952 432.468 185.036 433.032 185.204 433.48C185.372 433.928 185.608 434.264 185.912 434.488C186.224 434.712 186.584 434.824 186.992 434.824Z" fill="#02053C"/>
<path d="M438.016 349.12C437.384 349.12 436.804 348.944 436.276 348.592C435.756 348.232 435.34 347.728 435.028 347.08C434.716 346.432 434.56 345.668 434.56 344.788C434.56 343.908 434.712 343.148 435.016 342.508C435.328 341.86 435.744 341.36 436.264 341.008C436.784 340.656 437.36 340.48 437.992 340.48C438.632 340.48 439.212 340.656 439.732 341.008C440.252 341.36 440.664 341.86 440.968 342.508C441.28 343.148 441.436 343.912 441.436 344.8C441.436 345.68 441.28 346.444 440.968 347.092C440.664 347.74 440.252 348.24 439.732 348.592C439.22 348.944 438.648 349.12 438.016 349.12ZM437.992 347.824C438.408 347.824 438.768 347.712 439.072 347.488C439.376 347.264 439.612 346.928 439.78 346.48C439.956 346.032 440.044 345.468 440.044 344.788C440.044 344.116 439.956 343.556 439.78 343.108C439.612 342.66 439.372 342.328 439.06 342.112C438.756 341.888 438.4 341.776 437.992 341.776C437.584 341.776 437.224 341.888 436.912 342.112C436.608 342.328 436.372 342.66 436.204 343.108C436.036 343.548 435.952 344.108 435.952 344.788C435.952 345.468 436.036 346.032 436.204 346.48C436.372 346.928 436.608 347.264 436.912 347.488C437.224 347.712 437.584 347.824 437.992 347.824Z" fill="#02053C"/>
<path d="M387.359 262V253.6H388.715V262H387.359ZM385.679 254.836V253.6H388.595V254.836H385.679Z" fill="#02053C"/>
<path d="M334.59 174.184L337.686 170.896C337.942 170.624 338.15 170.38 338.31 170.164C338.47 169.948 338.586 169.744 338.658 169.552C338.73 169.36 338.766 169.164 338.766 168.964C338.766 168.588 338.642 168.296 338.394 168.088C338.154 167.872 337.846 167.764 337.47 167.764C337.07 167.764 336.718 167.864 336.414 168.064C336.11 168.264 335.838 168.576 335.598 169L334.638 168.208C334.966 167.64 335.37 167.212 335.85 166.924C336.33 166.628 336.886 166.48 337.518 166.48C338.038 166.48 338.494 166.584 338.886 166.792C339.278 167 339.582 167.292 339.798 167.668C340.014 168.036 340.122 168.464 340.122 168.952C340.122 169.304 340.078 169.62 339.99 169.9C339.91 170.172 339.77 170.448 339.57 170.728C339.37 171 339.094 171.32 338.742 171.688L336.366 174.148L334.59 174.184ZM334.59 175V174.184L335.778 173.764H340.29V175H334.59Z" fill="#02053C"/>
<path d="M236.016 175.12C235.384 175.12 234.804 174.944 234.276 174.592C233.756 174.232 233.34 173.728 233.028 173.08C232.716 172.432 232.56 171.668 232.56 170.788C232.56 169.908 232.712 169.148 233.016 168.508C233.328 167.86 233.744 167.36 234.264 167.008C234.784 166.656 235.36 166.48 235.992 166.48C236.632 166.48 237.212 166.656 237.732 167.008C238.252 167.36 238.664 167.86 238.968 168.508C239.28 169.148 239.436 169.912 239.436 170.8C239.436 171.68 239.28 172.444 238.968 173.092C238.664 173.74 238.252 174.24 237.732 174.592C237.22 174.944 236.648 175.12 236.016 175.12ZM235.992 173.824C236.408 173.824 236.768 173.712 237.072 173.488C237.376 173.264 237.612 172.928 237.78 172.48C237.956 172.032 238.044 171.468 238.044 170.788C238.044 170.116 237.956 169.556 237.78 169.108C237.612 168.66 237.372 168.328 237.06 168.112C236.756 167.888 236.4 167.776 235.992 167.776C235.584 167.776 235.224 167.888 234.912 168.112C234.608 168.328 234.372 168.66 234.204 169.108C234.036 169.548 233.952 170.108 233.952 170.788C233.952 171.468 234.036 172.032 234.204 172.48C234.372 172.928 234.608 173.264 234.912 173.488C235.224 173.712 235.584 173.824 235.992 173.824Z" fill="#02053C"/>
<path d="M286.359 436V427.6H287.715V436H286.359ZM284.679 428.836V427.6H287.595V428.836H284.679Z" fill="#02053C"/>
<path d="M185.359 262V253.6H186.715V262H185.359ZM183.679 254.836V253.6H186.595V254.836H183.679Z" fill="#02053C"/>
</svg>

